<svg xmlns="http://www.w3.org/2000/svg" width="145" height="50" viewBox="0 0 145 50">
  <path d="M84.052 8.102c.193.415.206 2.085-7.893 5.886l-7.942 3.727c-2.764 1.298-6.774 3.005-8.542 3.477-1.238.33-2.42-.51-2.42-.51s-3.565-3.193-4.512-3.91c-.945-.718-.864-1.083.348-1.47.755-.242 5.06.795 6.893 1.26a146.798 146.798 0 0 1 5.077-2.907c-2.257-1.67-6.478-4.787-7.825-5.737-1.29-.913.017-1.242.017-1.242.594-.16 1.878-.368 2.524-.232 4.398.92 11.74 3.347 12.3 3.533a146.79 146.79 0 0 1 4.724-2.368c3.354-1.575 6.993-.06 7.25.492l.001.001zM8.146 41V28.22h8.586v2.178H10.63v3.294h5.076v2.016H10.63V41H8.146zM19.54 27.86h2.41v10.008c0 .732.33 1.098.99 1.098.133 0 .286-.024.46-.072.174-.048.34-.102.495-.162l.324 1.926a4.687 4.687 0 0 1-1.135.36 6.186 6.186 0 0 1-1.17.126c-.756 0-1.34-.2-1.755-.603-.414-.4-.62-.974-.62-1.718V27.86h.001zM26.646 41v-9.432h2.412V41h-2.413.001zm0-10.746V27.86h2.412v2.394h-2.413.001zm9.63 10.8a3.903 3.903 0 0 1-1.72-.378 4.025 4.025 0 0 1-1.34-1.035 4.786 4.786 0 0 1-.865-1.52 5.459 5.459 0 0 1-.306-1.836c0-.684.108-1.32.324-1.908a4.95 4.95 0 0 1 .9-1.548 4.131 4.131 0 0 1 1.377-1.044 4.102 4.102 0 0 1 1.773-.378c.744 0 1.392.165 1.944.495.552.33 1.002.772 1.35 1.324V31.57h2.106v8.982c0 .696-.13 1.32-.387 1.872a3.944 3.944 0 0 1-1.09 1.404 4.97 4.97 0 0 1-1.655.882 6.805 6.805 0 0 1-2.088.306c-1.044 0-1.917-.17-2.62-.513a5.26 5.26 0 0 1-1.808-1.448l1.314-1.278c.36.444.813.792 1.36 1.044a4.13 4.13 0 0 0 1.754.378c.372 0 .73-.05 1.07-.153.343-.102.643-.26.9-.477.26-.216.463-.492.613-.828.15-.336.225-.732.225-1.188v-1.188c-.312.54-.75.957-1.314 1.25a3.864 3.864 0 0 1-1.818.442l.001-.003zm.827-1.926c.264 0 .516-.042.756-.126.24-.084.46-.198.657-.342a2.78 2.78 0 0 0 .53-.504c.157-.192.277-.396.36-.612v-2.25a2.935 2.935 0 0 0-1.007-1.332c-.456-.336-.936-.504-1.44-.504-.372 0-.71.08-1.017.243-.306.163-.567.38-.783.65-.216.27-.38.578-.495.926-.114.348-.17.708-.17 1.08 0 .384.065.744.197 1.08.132.336.315.63.55.882.233.252.51.45.827.594.317.144.662.216 1.034.216l.001-.001zM54.13 41h-2.412v-5.292c0-.744-.138-1.293-.414-1.647-.276-.353-.666-.53-1.17-.53-.216 0-.444.048-.684.144a2.64 2.64 0 0 0-.684.405c-.216.173-.414.38-.594.62s-.312.504-.396.792V41h-2.412V27.86h2.412v5.454a3.641 3.641 0 0 1 1.413-1.413 3.982 3.982 0 0 1 1.97-.494c.612 0 1.11.105 1.494.315.384.21.684.49.9.838.216.348.366.744.45 1.188.084.444.126.9.126 1.368V41h.001zm9.09-.486c-.325.144-.724.288-1.198.432-.474.144-.97.216-1.485.216-.336 0-.65-.042-.945-.126a2.093 2.093 0 0 1-.774-.405 1.937 1.937 0 0 1-.53-.72c-.133-.293-.2-.65-.2-1.07v-5.418h-1.223v-1.854h1.224v-3.06h2.41v3.06h2v1.854h-2v4.608c0 .336.09.573.27.71.18.14.397.208.65.208.25 0 .497-.042.737-.126.24-.084.432-.156.576-.216l.486 1.908.002-.001zm1.546.486l5.04-12.78h2.016L76.844 41h-2.628l-1.17-3.186h-4.482L67.394 41h-2.628zm6.048-10.098l-1.836 5.166h3.618l-1.782-5.166zm12.13 10.278a4.214 4.214 0 0 1-3.204-1.422 4.879 4.879 0 0 1-.927-1.557 5.422 5.422 0 0 1-.333-1.916c0-.684.105-1.32.315-1.908.21-.588.5-1.104.873-1.548A4.024 4.024 0 0 1 81 31.785a3.803 3.803 0 0 1 1.692-.378c.684 0 1.305.168 1.863.504a3.65 3.65 0 0 1 1.305 1.314V27.86h2.412v10.368c0 .252.048.432.144.54.096.108.264.168.504.18V41c-.456.084-.84.126-1.152.126-.444-.012-.79-.114-1.035-.306-.246-.192-.4-.462-.46-.81l-.053-.648a3.445 3.445 0 0 1-1.404 1.36 4.01 4.01 0 0 1-1.872.458zm.63-2.052c.228 0 .462-.04.702-.117.24-.077.462-.188.666-.332.204-.144.39-.312.558-.504.168-.192.294-.402.378-.63v-2.25a2.943 2.943 0 0 0-1-1.314c-.46-.348-.944-.522-1.448-.522-.36 0-.693.078-1 .234-.305.156-.566.37-.782.64-.216.27-.384.578-.504.926a3.29 3.29 0 0 0-.18 1.08c0 .396.066.762.198 1.098.132.336.315.63.55.882.233.252.51.45.827.594.317.144.662.216 1.034.216l.001-.001zM94.517 41l-3.474-9.432h2.484l2.394 7.47 2.413-7.47h2.268L97.128 41H94.517zm8.657 0v-9.432h2.412V41h-2.412zm0-10.746V27.86h2.412v2.394h-2.412zm9.664 10.926c-.384 0-.783-.03-1.197-.09-.413-.06-.818-.144-1.214-.252a8.42 8.42 0 0 1-1.134-.396 5.488 5.488 0 0 1-.954-.522l.972-1.638c1.2.78 2.358 1.17 3.474 1.17.504 0 .9-.09 1.188-.27a.861.861 0 0 0 .432-.774c0-.336-.17-.585-.513-.747-.34-.16-.914-.338-1.718-.53a14.373 14.373 0 0 1-1.566-.45c-.432-.156-.78-.336-1.044-.54a1.866 1.866 0 0 1-.576-.702 2.246 2.246 0 0 1-.18-.936c0-.48.096-.912.288-1.296.192-.384.46-.71.8-.98a3.72 3.72 0 0 1 1.207-.622 5.039 5.039 0 0 1 1.504-.216c.672 0 1.34.105 2.007.315.667.21 1.288.495 1.864.855l-.99 1.494c-.528-.336-1.026-.58-1.494-.73a4.576 4.576 0 0 0-1.404-.224c-.432 0-.795.084-1.09.252-.293.168-.44.438-.44.81 0 .324.14.558.423.702.28.144.782.306 1.502.486a19.22 19.22 0 0 1 1.72.504c.473.168.863.36 1.17.576.305.216.527.465.665.747s.207.62.207 1.017c0 .456-.093.87-.28 1.242a2.689 2.689 0 0 1-.782.945 3.647 3.647 0 0 1-1.233.593 5.9 5.9 0 0 1-1.612.207h-.002zm11.177 0c-.768 0-1.458-.132-2.07-.396a4.657 4.657 0 0 1-1.557-1.07 4.713 4.713 0 0 1-.98-1.558 5.043 5.043 0 0 1-.343-1.854c0-.66.114-1.284.342-1.872a4.741 4.741 0 0 1 .98-1.557c.427-.45.946-.807 1.558-1.07.612-.265 1.302-.397 2.07-.397.768 0 1.455.132 2.06.396.607.264 1.123.62 1.55 1.07.425.45.752.97.98 1.558.228.588.342 1.212.342 1.872 0 .648-.114 1.266-.342 1.854a4.804 4.804 0 0 1-.972 1.557c-.42.45-.936.807-1.548 1.07-.612.265-1.302.397-2.07.397zm-2.466-4.878c0 .42.062.8.188 1.143.126.342.3.64.522.89.222.253.483.448.783.586.3.14.624.208.972.208a2.313 2.313 0 0 0 1.755-.791c.222-.252.396-.552.522-.9s.19-.732.19-1.152c0-.408-.064-.786-.19-1.134a2.773 2.773 0 0 0-.522-.9 2.298 2.298 0 0 0-1.755-.792c-.348 0-.672.072-.972.216-.3.144-.56.342-.783.594a2.773 2.773 0 0 0-.522.9c-.126.348-.19.726-.19 1.134l.002-.002zm15.98-2.646c-.73.012-1.385.153-1.96.423-.577.27-.99.674-1.243 1.214V41h-2.412v-9.432h2.214v2.016c.323-.648.746-1.17 1.268-1.566.522-.396 1.07-.594 1.647-.594.132 0 .23.003.297.01.066.005.13.014.19.026v2.196h-.001z" fill="#111" fill-rule="evenodd"/>
</svg>
