<svg xmlns="http://www.w3.org/2000/svg" width="120" height="45" viewBox="0 0 120 45">
  <g fill="#111" fill-rule="nonzero">
    <path d="M8.81 17.259c9.469-3.104 10.463-.129 10.463 4.267v12.541h-2.897V22.518c0-3.58-.303-4.742-7.479-2.156v13.707H6V15.965h2.377l.433 1.294zM39.852 25.018c0 6.508-1.257 9.482-7.264 9.482-6.01 0-7.265-2.975-7.265-9.482 0-6.467 1.255-9.481 7.265-9.481 6.007-.002 7.264 3.014 7.264 9.481zm-2.898 0c0-5.345-1.167-6.596-4.366-6.596-3.2 0-4.368 1.249-4.368 6.596 0 5.39 1.168 6.594 4.368 6.594 3.199-.001 4.366-1.208 4.366-6.594zM55.328 18.811c-1.771.086-3.156.387-6.095 1.508v13.748h-2.897V15.965h2.378l.432 1.25c2.379-.861 3.978-1.25 6.183-1.25l-.001 2.846zM72.189 33.55c-8.127 1.728-8.994-.946-8.994-5.041v-9.655H60.95v-2.888h2.245V9.5h2.897v6.465h4.798v2.889h-4.798v8.835c0 3.104.435 4.095 5.576 3.104l.521 2.757zM93.243 25.018c0 6.508-1.257 9.482-7.265 9.482-6.011 0-7.264-2.975-7.264-9.482 0-6.467 1.253-9.481 7.264-9.481 6.008-.002 7.265 3.014 7.265 9.481zm-2.895 0c0-5.345-1.166-6.596-4.367-6.596-3.197 0-4.365 1.249-4.365 6.596 0 5.39 1.168 6.594 4.365 6.594 3.201-.001 4.367-1.208 4.367-6.594zM102.537 17.259c9.47-3.103 10.463-.129 10.463 4.266v12.542h-2.896V22.518c0-3.58-.302-4.742-7.479-2.156v13.707h-2.896V15.965h2.379l.429 1.294z"/>
  </g>
</svg>
