<svg xmlns="http://www.w3.org/2000/svg" width="125" height="40" viewBox="0 0 125 40">
  <g fill="#111" fill-rule="nonzero">
    <path d="M7 28.998V11h12v3.075h-8.53v4.627h7.091v2.844h-7.09V29zM25 29V11h8.134c.847 0 1.632.176 2.35.525a5.835 5.835 0 0 1 1.851 1.367 6.496 6.496 0 0 1 1.22 1.923c.292.72.436 1.44.436 2.164 0 1.173-.294 2.23-.895 3.18a5.087 5.087 0 0 1-2.419 2.073L40 29h-4.043l-3.856-6.03h-3.524v6.03L25 29zm3.578-9.105h4.482c.326 0 .634-.072.917-.229.286-.142.533-.353.74-.616.21-.264.372-.564.494-.929.119-.353.18-.736.18-1.14a3.149 3.149 0 0 0-.766-2.093 2.426 2.426 0 0 0-.804-.602c-.3-.141-.606-.21-.917-.21h-4.326v5.819zM46 29V11h3v18zM57 29V11h6.363c1.435 0 2.686.239 3.763.704 1.079.475 1.98 1.122 2.703 1.932a8.023 8.023 0 0 1 1.625 2.848c.361 1.092.546 2.252.546 3.484 0 1.37-.2 2.615-.612 3.722a7.874 7.874 0 0 1-1.73 2.834 7.641 7.641 0 0 1-2.722 1.827c-1.06.437-2.254.649-3.572.649H57zm11.564-9.032c0-.85-.107-1.653-.343-2.376a5.345 5.345 0 0 0-1.01-1.88 4.45 4.45 0 0 0-1.642-1.214c-.652-.282-1.387-.423-2.206-.423h-2.96v11.851h2.96c.839 0 1.589-.143 2.238-.456.65-.3 1.183-.72 1.625-1.25a5.5 5.5 0 0 0 .995-1.884c.237-.734.343-1.51.343-2.368zM77 29l7.085-18h2.845L94 29h-3.697l-1.65-4.496h-6.308L80.695 29H77zm8.509-14.221l-2.585 7.277h5.097l-2.512-7.277zM99.69 11l4.289 8.668L108.354 11H112l-6.332 11.708V29h-3.358v-6.343L96 11zM116 26.993A2.01 2.01 0 0 1 113.993 29c-1.106 0-1.993-.9-1.993-2.007 0-1.104.887-1.993 1.993-1.993 1.104 0 2.007.889 2.007 1.993z"/>
  </g>
</svg>
