<svg xmlns="http://www.w3.org/2000/svg" xmlns:xlink="http://www.w3.org/1999/xlink" width="120" height="40" viewBox="0 0 120 40">
  <defs>
    <path id="a" d="M0 0h24v31H0z"/>
  </defs>
  <g fill="none" fill-rule="evenodd">
    <g transform="translate(5 5)">
      <mask id="b" fill="#fff">
        <use xlink:href="#a"/>
      </mask>
      <path stroke="#111" stroke-width="6" mask="url(#b)" d="M0 0h24v31H0z"/>
    </g>
    <path d="M43.02 13.466c0 1.114-.44 1.834-1.32 2.158l1.756 2.487h-1.904l-1.537-2.218h-1.071v2.218h-1.547v-6.952h2.628c1.078 0 1.847.182 2.305.547.46.365.69.951.69 1.76zm-1.865.826c.192-.172.288-.446.288-.82 0-.375-.1-.632-.298-.771-.198-.14-.545-.21-1.04-.21h-1.161v2.06h1.13c.529 0 .89-.088 1.081-.26zm8.941 3.819l-.644-1.502h-2.906l-.645 1.502h-1.647l2.996-6.952h1.497l2.995 6.952h-1.646zm-2.092-4.883l-.874 2.019h1.735l-.861-2.02zm7.522-.726v5.609h-1.547V12.5h-1.963V11.16h5.474v1.343h-1.964zm3.644-1.343h1.548v6.952h-1.547v-6.952zm8.515 1.85a1.898 1.898 0 0 0-1.462-.656c-.58 0-1.066.218-1.463.656-.397.437-.595.966-.595 1.586 0 .62.198 1.147.595 1.581a1.9 1.9 0 0 0 1.463.652c.578 0 1.066-.218 1.462-.652.397-.435.595-.961.595-1.58 0-.62-.198-1.15-.595-1.587zm-1.467 5.171c-1.025 0-1.888-.343-2.589-1.029-.7-.686-1.05-1.54-1.05-2.56 0-1.022.35-1.875 1.05-2.562.7-.686 1.564-1.029 2.589-1.029 1.024 0 1.887.343 2.588 1.03.7.686 1.051 1.539 1.051 2.56 0 1.021-.35 1.875-1.05 2.561-.701.686-1.565 1.03-2.59 1.03zm10.348-7.02h1.547v6.95h-1.547l-3.302-4.355v4.356h-1.547v-6.952h1.448l3.401 4.475V11.16zm8.743 6.95l-.644-1.501h-2.906l-.644 1.502h-1.647l2.995-6.952h1.498l2.995 6.952H85.31zm-2.092-4.882l-.872 2.019h1.735l-.862-2.02h-.001zm5.094 4.883v-6.952h1.547v5.57h2.956v1.382H88.31zM41.9 26.38h1.557v2.466c-.688.77-1.64 1.154-2.856 1.154-1.018 0-1.872-.338-2.564-1.014-.69-.677-1.036-1.53-1.036-2.561 0-1.032.352-1.892 1.056-2.581.704-.69 1.554-1.034 2.549-1.034.995 0 1.86.328 2.593.984l-.803 1.164c-.31-.272-.597-.46-.858-.562a2.295 2.295 0 0 0-.848-.154c-.589 0-1.085.2-1.487.601-.403.401-.605.93-.605 1.587 0 .656.193 1.18.58 1.576a1.87 1.87 0 0 0 1.383.592c.536 0 .982-.103 1.34-.309V26.38zm8.485-3.411v1.382h-3.452v1.432h3.105v1.323h-3.105v1.442h3.56v1.372h-5.106V22.97h4.998zm6.64 1.85a1.898 1.898 0 0 0-1.463-.657c-.579 0-1.066.22-1.463.657-.396.437-.595.966-.595 1.586 0 .62.199 1.147.595 1.581a1.9 1.9 0 0 0 1.463.652c.578 0 1.066-.218 1.463-.652.397-.435.595-.961.595-1.581s-.198-1.149-.595-1.586zm-1.468 5.171c-1.025 0-1.888-.343-2.588-1.03-.7-.685-1.051-1.539-1.051-2.56 0-1.021.35-1.875 1.05-2.561.701-.686 1.564-1.03 2.59-1.03 1.024 0 1.887.344 2.588 1.03.7.686 1.05 1.54 1.05 2.56 0 1.022-.35 1.876-1.05 2.562-.7.686-1.564 1.03-2.589 1.03zm10.002-3.61h1.558v2.466c-.688.77-1.64 1.154-2.856 1.154-1.019 0-1.873-.338-2.564-1.014-.692-.677-1.037-1.53-1.037-2.561 0-1.032.352-1.892 1.056-2.581.705-.69 1.554-1.034 2.55-1.034.994 0 1.86.328 2.593.984l-.803 1.164c-.31-.272-.597-.46-.857-.562a2.302 2.302 0 0 0-.848-.154c-.59 0-1.085.2-1.488.601-.404.401-.606.93-.606 1.587 0 .656.194 1.18.58 1.576.387.395.848.592 1.383.592.536 0 .982-.103 1.339-.309V26.38zm9.11-1.104c0 1.114-.44 1.834-1.319 2.158l1.756 2.486H73.2l-1.538-2.217h-1.07v2.217h-1.548V22.97h2.628c1.078 0 1.846.182 2.306.547.459.365.69.95.69 1.76zm-1.864.826c.192-.173.288-.446.288-.82 0-.376-.1-.632-.298-.772-.198-.139-.545-.209-1.041-.209h-1.16v2.06h1.13c.529 0 .889-.088 1.08-.26zm8.94 3.818l-.645-1.501h-2.906l-.644 1.501h-1.647l2.995-6.951h1.498l2.995 6.951h-1.646zm-2.093-4.883l-.873 2.02h1.736l-.863-2.02zm9.868-1.447c.486.415.73 1.05.73 1.91 0 .858-.25 1.487-.75 1.884-.499.398-1.26.597-2.285.597h-.924v1.94h-1.546v-6.952h2.45c1.064 0 1.839.207 2.325.621zm-1.135 2.735c.185-.209.277-.514.277-.915 0-.4-.12-.686-.362-.855-.24-.169-.615-.254-1.125-.254h-.882v2.338h1.041c.516 0 .868-.105 1.052-.314zm7.93-3.356h1.546v6.951h-1.547v-2.734h-2.757v2.734H92.01V22.97h1.547v2.904h2.757v-2.904zm3.803 0h1.547v6.951h-1.547V22.97zm6.987 5.579c.76 0 1.382-.301 1.865-.905l.991 1.024c-.787.89-1.713 1.333-2.781 1.333s-1.947-.338-2.638-1.014c-.691-.677-1.037-1.53-1.037-2.561 0-1.032.352-1.892 1.056-2.581.705-.69 1.566-1.034 2.584-1.034 1.137 0 2.089.435 2.856 1.303l-.962 1.093c-.49-.609-1.097-.914-1.825-.914-.582 0-1.078.19-1.492.571-.414.381-.62.895-.62 1.542 0 .646.195 1.165.585 1.556.39.392.863.587 1.418.587z" fill="#111" fill-rule="nonzero"/>
  </g>
</svg>
