<svg xmlns="http://www.w3.org/2000/svg" width="105" height="50" viewBox="0 0 105 50">
  <g fill="#111" fill-rule="nonzero">
    <path d="M5 5v37.52h1.82V5zM11.797 9.822c0-.802.389-1.199 1.167-1.199.37 0 .667.1.884.299.219.2.329.5.329.9 0 .303-.102.566-.304.79-.203.224-.506.336-.91.336-.373 0-.658-.111-.862-.335a1.142 1.142 0 0 1-.304-.79zm.245 32.697V18.098h1.82V42.52h-1.82zM26.764 42.52h-1.82V22.343c0-.735-.208-1.36-.62-1.871-.412-.512-1-.77-1.76-.77H20.16v22.815H18.34v-24.42h4.223c.68 0 1.282.109 1.808.325.526.215.967.52 1.324.912.354.392.621.855.8 1.39a5.5 5.5 0 0 1 .268 1.738v20.056h.002zM39.874 38.607c0 .625-.089 1.206-.268 1.739-.178.536-.445 1-.801 1.392-.355.394-.796.7-1.323.925-.527.221-1.13.336-1.808.336-.697 0-1.308-.113-1.832-.336a3.688 3.688 0 0 1-1.324-.925 3.854 3.854 0 0 1-.801-1.392 5.449 5.449 0 0 1-.268-1.739v-20.51h4.127c.616 0 1.108.045 1.483.134.373.088.703.212.993.372V5.001h1.824l-.002 33.606zM38.05 21.983c0-.097-.012-.27-.035-.527a1.87 1.87 0 0 0-.257-.769c-.143-.257-.38-.485-.703-.684-.324-.2-.785-.299-1.383-.299h-2.404v19.07c0 .737.207 1.356.621 1.86.412.502 1.006.758 1.784.758.762 0 1.347-.256 1.76-.758.412-.502.617-1.122.617-1.86v-16.79zM43.186 36.976h1.822v1.8c0 .736.207 1.354.62 1.86.412.501 1.007.756 1.785.756.76 0 1.347-.255 1.76-.757.414-.503.62-1.122.62-1.86v-3.022a4.2 4.2 0 0 0-.256-1.476 6.417 6.417 0 0 0-.68-1.32 9.17 9.17 0 0 0-.972-1.21c-.366-.384-.733-.77-1.105-1.153-.453-.447-.893-.9-1.322-1.366-.43-.46-.814-.957-1.155-1.476a7.616 7.616 0 0 1-.812-1.643 5.645 5.645 0 0 1-.304-1.874v-2.23c0-.64.09-1.228.269-1.762.176-.536.444-.999.8-1.391a3.586 3.586 0 0 1 1.322-.911c.527-.217 1.137-.326 1.836-.326.679 0 1.282.111 1.807.326.524.217.967.52 1.322.911.356.393.621.854.802 1.39.176.537.266 1.126.266 1.763v1.968h-1.82v-2.11c0-.737-.207-1.36-.622-1.875-.412-.509-1-.766-1.76-.766-.777 0-1.372.256-1.784.766-.412.514-.619 1.137-.619 1.875v2.375c0 .545.089 1.05.268 1.523.178.472.41.915.692 1.33.283.416.607.82.97 1.212.366.391.732.78 1.104 1.165.455.462.895.928 1.323 1.39.429.465.81.952 1.141 1.466.333.511.599 1.05.802 1.62.203.568.301 1.172.301 1.81v2.853c0 .624-.09 1.208-.265 1.74-.18.535-.447 1-.803 1.394-.355.392-.798.7-1.322.926-.526.223-1.129.333-1.808.333-.695 0-1.306-.11-1.833-.334a3.716 3.716 0 0 1-1.322-.929 3.843 3.843 0 0 1-.802-1.394 5.49 5.49 0 0 1-.267-1.74l.001-1.627zM55.361 19.705h-2.013v-1.606h2.013v-3.023h1.823v3.023h3.326v1.606h-3.326v19.046c0 .733.202 1.357.608 1.859.402.502.995.758 1.77.758h.8v1.63h-.8c-.694 0-1.306-.113-1.834-.336a3.535 3.535 0 0 1-1.308-.924 3.903 3.903 0 0 1-.789-1.391 5.463 5.463 0 0 1-.266-1.74V19.705h-.004zM69.2 19.562a3.42 3.42 0 0 0-.875-.097c-.777 0-1.369.256-1.785.77-.415.51-.617 1.134-.617 1.869v20.415H64.1V22.25c0-.641.088-1.228.266-1.763.179-.536.447-1 .805-1.392a3.574 3.574 0 0 1 1.323-.912c.527-.216 1.133-.324 1.832-.324.294 0 .574.02.85.06.273.04.528.099.752.178l-.729 1.466zM80.501 38.151a6.73 6.73 0 0 1-.267 1.945 4.342 4.342 0 0 1-.801 1.534c-.357.428-.8.77-1.326 1.008-.527.241-1.133.36-1.831.36-.695 0-1.305-.107-1.832-.325a3.503 3.503 0 0 1-1.314-.91 3.937 3.937 0 0 1-.784-1.393 5.52 5.52 0 0 1-.267-1.762V21.983c0-.623.089-1.203.267-1.738.177-.536.445-1 .801-1.391a3.561 3.561 0 0 1 1.325-.911c.526-.217 1.136-.325 1.83-.325h4.201l-.002 20.533zM72.245 12.7c0-.798.386-1.2 1.166-1.2.778 0 1.164.402 1.164 1.2 0 .304-.099.567-.291.792-.193.224-.49.335-.878.335-.372 0-.659-.11-.861-.335a1.164 1.164 0 0 1-.3-.792zm1.65 26.05c0 .739.209 1.361.617 1.875.417.51 1.01.769 1.785.769.763 0 1.35-.291 1.762-.873.414-.582.617-1.288.617-2.124V19.228H76.3c-.779 0-1.369.257-1.786.769-.41.513-.618 1.135-.618 1.871v16.883zm4.663-26.05c0-.798.405-1.2 1.216-1.2.775 0 1.165.402 1.165 1.2 0 .304-.095.567-.278.792-.19.223-.485.335-.887.335-.387 0-.693-.11-.9-.335a1.114 1.114 0 0 1-.316-.792zM93.303 42.52h-1.701V22.343c0-.815-.204-1.461-.605-1.93-.405-.473-.999-.709-1.772-.709h-2.454V42.52h-1.819V18.098h4.2c.729 0 1.372.124 1.942.373.563.249 1.021.579 1.358.995.356-.4.82-.728 1.396-.984.574-.257 1.217-.383 1.927-.383H100V42.52h-1.822V19.705h-2.475c-.778 0-1.37.238-1.783.709-.416.471-.618 1.115-.618 1.93V42.52h.001z"/>
  </g>
</svg>
