<svg xmlns="http://www.w3.org/2000/svg" width="115" height="40" viewBox="0 0 115 40">
  <g fill="#111" fill-rule="nonzero">
    <path d="M28.463 9.095A28.12 28.12 0 0 0 31 9v.647c-.555.213-1.102.627-1.642 1.243-.542.616-1.02 1.489-1.432 2.618L20.9 32c-.25-.02-.641-.03-1.171-.03-.512 0-.885.01-1.121.03l-8.51-20.28c-.281-.716-.612-1.236-.983-1.557-.374-.32-.747-.492-1.115-.515v-.646c1.336.063 3.026.095 5.076.095 2.266 0 3.952-.032 5.06-.095v.646c-.838.032-1.436.129-1.796.292-.367.167-.546.469-.546.912 0 .338.133.842.407 1.516l5.873 14.506 4.099-10.74c.617-1.696.927-3.016.927-3.955 0-.864-.236-1.494-.71-1.888-.47-.397-1.168-.609-2.088-.642v-.646c1.495.06 2.881.092 4.161.092zM41.87 17.04C43.288 18.4 44 20.56 44 23.514c0 2.944-.709 5.095-2.13 6.45C40.45 31.319 38.495 32 36.006 32c-2.486 0-4.442-.679-5.87-2.035C28.714 28.609 28 26.457 28 23.514c0-2.943.713-5.1 2.136-6.466C31.561 15.683 33.52 15 36.006 15c2.489 0 4.444.679 5.864 2.04zm-8.103.52c-.557 1.3-.84 3.285-.84 5.954 0 2.66.28 4.637.84 5.927.558 1.29 1.308 1.934 2.24 1.934.946 0 1.694-.642 2.24-1.928.551-1.282.822-3.262.822-5.933 0-2.682-.271-4.668-.822-5.964-.548-1.295-1.294-1.942-2.24-1.942-.932 0-1.683.65-2.24 1.951zM53.464 15.852A4.305 4.305 0 0 1 56.082 15c.649 0 1.194.141 1.632.424.44.282.765.64.972 1.085.212.444.314.918.314 1.432 0 .792-.23 1.438-.691 1.94-.458.5-1.065.75-1.82.75-.734 0-1.312-.185-1.736-.554-.425-.37-.638-.87-.638-1.493 0-1.021.472-1.856 1.414-2.502a1.877 1.877 0 0 0-.394-.048c-.147 0-.313.026-.502.077-.543.084-1.043.344-1.491.777a4.7 4.7 0 0 0-1.061 1.555 4.475 4.475 0 0 0-.385 1.765v8.494c0 .99.24 1.675.723 2.055.481.38 1.252.57 2.31.57V32c-2.681-.08-4.39-.122-5.124-.122-.684 0-2.215.042-4.605.122v-.673c.51 0 .92-.068 1.217-.202.3-.137.513-.37.643-.705.13-.333.198-.798.198-1.39v-10.1c0-.99-.153-1.71-.455-2.15-.307-.444-.838-.665-1.602-.665v-.676a21.99 21.99 0 0 0 1.996.094c1.895 0 3.462-.146 4.7-.437v2.97c.41-.907 1-1.645 1.767-2.214z"/>
    <path d="M66.426 15.982c.838-.53 1.807-.794 2.91-.794 1.103 0 2.08.312 2.934.937.85.626 1.52 1.569 2.004 2.83.485 1.263.726 2.815.726 4.66 0 2.164-.32 3.94-.955 5.33-.636 1.387-1.496 2.4-2.572 3.038-1.08.636-2.294.954-3.655.954-1.451 0-2.617-.382-3.508-1.146a5.26 5.26 0 0 0-.488-.017c-.682 0-1.352.118-2 .343-.648.226-1.168.521-1.554.883l-.477-.303c.145-.55.215-1.157.215-1.813V10.91c0-1.006-.152-1.735-.45-2.185-.3-.45-.82-.675-1.556-.675v-.685c.656.066 1.304.096 1.948.096 1.835 0 3.364-.154 4.579-.461v11.29c.428-1.009 1.062-1.777 1.9-2.308zm.429 16.268c2.278 0 3.417-2.723 3.417-8.174 0-2.669-.237-4.587-.713-5.747-.476-1.161-1.168-1.742-2.076-1.742-.684 0-1.304.254-1.862.763-.557.509-.92 1.2-1.095 2.069v11.957c.685.582 1.463.874 2.329.874zM81.88 23.376c0 1.383.2 2.527.597 3.435.4.908.92 1.574 1.554 1.995.64.422 1.318.631 2.047.631 1.777 0 3.203-.832 4.276-2.499l.566.183c-.27.85-.693 1.65-1.268 2.384a6.712 6.712 0 0 1-2.177 1.8c-.88.46-1.882.695-3.007.695-1.488 0-2.788-.305-3.91-.916-1.118-.61-1.995-1.536-2.62-2.78-.626-1.243-.938-2.789-.938-4.638 0-1.888.334-3.48 1.012-4.776.673-1.296 1.602-2.27 2.793-2.916 1.189-.65 2.56-.974 4.117-.974C88.974 15 91 17.305 91 21.916h-9.078c-.026.301-.042.788-.042 1.46zm4.538-6.11c-.372-1.076-.94-1.615-1.697-1.615-.768 0-1.403.46-1.918 1.38-.51.918-.825 2.347-.94 4.286h5.067c.033-1.623-.138-2.973-.512-4.05zM95.156 29.762c.685 1.014 1.653 1.522 2.908 1.522.616 0 1.141-.185 1.58-.557.439-.368.656-.927.656-1.668 0-.578-.131-1.097-.394-1.554a4.758 4.758 0 0 0-.995-1.218c-.4-.352-1-.843-1.806-1.46a47.177 47.177 0 0 1-2.198-1.846 6.469 6.469 0 0 1-1.255-1.589c-.351-.618-.527-1.311-.527-2.095 0-.893.248-1.666.74-2.315.492-.65 1.155-1.142 1.988-1.48A7.203 7.203 0 0 1 98.569 15c.8 0 1.536.097 2.204.292.67.192 1.192.416 1.572.669.208.142.392.21.555.21.392 0 .638-.38.74-1.141h.696c-.085 1.046-.121 2.874-.121 5.484h-.694c-.185-1.361-.6-2.506-1.245-3.435-.64-.93-1.575-1.395-2.796-1.395-.627 0-1.142.177-1.545.53-.398.356-.6.846-.6 1.463 0 .701.236 1.306.711 1.812.473.509 1.043.994 1.71 1.463.67.469 1.158.818 1.464 1.05.861.641 1.549 1.2 2.058 1.677a6.186 6.186 0 0 1 1.243 1.62c.316.607.479 1.301.479 2.084 0 .913-.272 1.719-.812 2.42-.54.7-1.269 1.242-2.182 1.624-.916.382-1.92.573-3.007.573-1.122 0-2.098-.219-2.931-.657a13.055 13.055 0 0 0-1.48-.657.498.498 0 0 0-.157-.028c-.34 0-.582.37-.737 1.112H93c.08-1.188.121-3.265.121-6.23h.694c.212 1.797.657 3.203 1.34 4.222z"/>
  </g>
</svg>
