<svg xmlns="http://www.w3.org/2000/svg" width="115" height="75" viewBox="0 0 115 75">
  <g fill-rule="nonzero" fill="none">
    <path d="M35.899 60.355v1.41c0 1.685-.159 2.856-.475 3.51-.519 1.083-1.542 1.624-3.069 1.624-1.985 0-3.299-.739-3.934-2.226-.52-1.199-.777-3.479-.777-6.845v-.902c0-.287.014-.581.041-.896 0-1.51-.356-2.533-1.07-3.063-.713-.528-1.74-.791-3.082-.791h-5.051v11.499c0 .858.05 1.403.15 1.634.1.226.315.408.646.534.329.128 1.001.209 2.019.234 1.016.027 2.085.043 3.204.043v.383H7v-.426c3.01 0 4.816-.114 5.419-.342.285-.114.487-.278.602-.494.114-.215.173-.731.173-1.564V41.62c0-.8-.059-1.301-.173-1.503-.057-.114-.243-.228-.558-.342-.833-.317-2.653-.473-5.463-.473v-.387h17.59c3.096 0 5.561.83 7.397 2.484 1.463 1.317 2.193 2.672 2.193 4.073 0 1.66-.575 3.015-1.727 4.073-1.383 1.283-3.57 2.102-6.564 2.442 3.056.598 5.075 2.291 6.056 5.086.494 1.399.741 3.504.741 6.323 0 .829.072 1.427.217 1.793.144.375.494.56 1.043.56.61 0 1.03-.48 1.263-1.432.232-.957.348-2.276.348-3.962h.342v-.002.001zM18.482 51.71h3.983c2.082 0 3.623-.387 4.625-1.162 1.199-.92 1.798-2.468 1.798-4.655 0-2.411-.491-4.114-1.475-5.102-.986-.994-2.62-1.487-4.902-1.487h-2.059c-.599 0-1.045.043-1.327.13-.285.088-.466.265-.536.536-.07.273-.106.827-.106 1.663l-.002 10.076zm33.782 5.18h-8.287l-1.324 3.782c-.342.945-.513 1.76-.513 2.45 0 1.06.4 1.82 1.203 2.276.804.456 1.936.688 3.398.688v.427H35.816v-.427c1.98 0 3.513-.743 4.603-2.227.601-.828 1.374-2.541 2.322-5.141l7.267-20.145h.86l9.288 25.114c.428 1.17.858 1.865 1.288 2.082.428.215 1.72.32 3.867.32v.428H49.446v-.43c2.147 0 3.626-.076 4.429-.235.804-.159 1.205-.48 1.205-.966l-.088-.428-2.73-7.571.002.004zm-.215-.472l-3.931-10.895-3.93 10.895h7.861zm27.677-10.57l-5.434 20.838h-1.46l-9.463-24.985c-.43-1.172-.867-1.866-1.316-2.083-.444-.214-1.653-.321-3.629-.321v-.384h14.667v.385c-1.748 0-2.96.093-3.634.278-.675.185-1.01.551-1.01 1.093 0 .29.09.63.26 1.032l6.75 17.967 3.927-14.893-.917-3.059c-.347-1.155-.766-1.843-1.258-2.073-.492-.226-1.751-.34-3.777-.34v-.39h14.727v.386c-1.74 0-2.95.093-3.623.278-.67.185-1.007.577-1.007 1.18 0 .314.06.63.178.944l5.555 18.012 4.731-13.334c.485-1.398.727-2.546.727-3.43 0-2.431-1.72-3.646-5.16-3.646v-.385h11.098v.385c-2.04 0-3.546 1.042-4.52 3.129-.14.316-.674 1.715-1.588 4.199l-7.052 20.054h-1.42l-6.352-20.837zm-11.77-30.916L62.524 35.77H61.06L51.6 10.785c-.43-1.17-.867-1.864-1.311-2.078-.445-.215-1.657-.321-3.634-.321V8H61.32v.385c-1.745 0-2.957.095-3.629.277-.678.187-1.01.551-1.01 1.093 0 .287.086.631.257 1.031l6.75 17.967 3.93-14.892-.921-3.062c-.348-1.15-.765-1.839-1.258-2.068-.489-.232-1.75-.347-3.776-.347V8h14.733v.385c-1.744 0-2.948.095-3.62.277-.673.187-1.006.58-1.006 1.181 0 .313.059.629.176.943l5.548 18.01 4.736-13.333c.482-1.4.727-2.544.727-3.432 0-2.427-1.72-3.643-5.161-3.643V8H88.89v.385c-2.038 0-3.542 1.043-4.516 3.128-.139.316-.675 1.715-1.589 4.2L75.733 35.77h-1.418l-6.358-20.838z" fill="#111"/>
    <path d="M96.342 33.087c.38.74.783 1.228 1.206 1.457.422.232.903.347 1.441.347.87 0 1.446-.491 1.725-1.475.28-.981.418-2.631.418-4.956h.5c0 3.13-.178 5.155-.542 6.078-.646 1.618-2.107 2.423-4.405 2.423-1.317 0-2.451-.694-3.4-2.087-.206-.308-.653-1.107-1.358-2.394-.874 1.646-1.774 2.78-2.703 3.4-1.108.723-2.703 1.084-4.794 1.084-1.235 0-2.337-.59-3.313-1.765-1.054-1.28-1.584-2.852-1.584-4.72 0-.715.061-1.396.19-2.032.135-.64.377-1.359.734-2.147.67-1.563 1.487-2.798 2.453-3.705.966-.907 1.962-1.477 2.995-1.708a7.513 7.513 0 0 1-.687-1.67 6.907 6.907 0 0 1-.256-1.937c0-1.359.418-2.597 1.257-3.724.843-1.123 1.942-1.688 3.315-1.688 1.235 0 2.215.308 2.945.922.726.615 1.083 1.484 1.083 2.61 0 1.024-.414 1.957-1.24 2.803-.695.716-1.638 1.318-2.829 1.801l4.297 8.192 2.375-4.193c.488-.896.73-1.553.73-1.961 0-.566-.327-.942-.97-1.135-.65-.192-1.731-.29-3.256-.29v-.383H102v.383c-1.08 0-2.023.198-2.834.596-.811.397-1.463 1.043-1.947 1.938l-3.162 5.717 2.284 4.22v-.001zm-4.653-1.114l-5.53-10.744c-.997.282-1.743.665-2.227 1.152-.66.638-1.14 1.636-1.42 2.993a8.535 8.535 0 0 0-.152 1.688c0 1.049.144 2.068.446 3.052.295.985.71 1.862 1.245 2.628.646.972 1.286 1.7 1.943 2.185.651.489 1.276.73 1.864.73.692 0 1.353-.32 1.98-.96.616-.639 1.235-1.546 1.853-2.724h-.002zm-2.292-12.276c.995-.432 1.707-1.095 2.14-1.985.36-.738.535-1.693.535-2.863 0-.713-.18-1.33-.558-1.856-.376-.522-.874-.78-1.51-.78-.894 0-1.568.279-2.026.84-.456.56-.688 1.184-.688 1.869 0 .534.099.978.304 1.335l1.803 3.44z" fill="#aaa"/>
  </g>
</svg>
