<svg xmlns="http://www.w3.org/2000/svg" width="145" height="35" viewBox="0 0 145 35">
  <path d="M31.289 28h-3.48v-9.309h-16.82V28h-3.48V7.004h3.48v8.526h16.82V7.004h3.48V28zm29.345-8.961c0 2.92-1.247 5.297-3.741 7.134-2.127 1.566-4.785 2.349-7.975 2.349-3.19 0-5.858-.783-8.004-2.349-2.494-1.817-3.741-4.195-3.741-7.134 0-2.9 1.256-5.259 3.77-7.076 2.204-1.605 4.862-2.407 7.975-2.407 3.093 0 5.742.802 7.946 2.407 2.513 1.837 3.77 4.195 3.77 7.076zm-3.625 0c0-1.837-.754-3.35-2.262-4.539-1.508-1.189-3.451-1.783-5.83-1.783-2.397 0-4.354.6-5.872 1.798-1.517 1.199-2.276 2.707-2.276 4.524 0 1.895.744 3.427 2.233 4.596 1.488 1.17 3.46 1.755 5.916 1.755 2.436 0 4.393-.585 5.872-1.755 1.48-1.17 2.219-2.701 2.219-4.596zM87.049 28h-4.001l-4.67-6.554h-8.844V28h-3.48V10.165h14.413c1.894 0 3.402.512 4.524 1.537 1.12 1.025 1.682 2.397 1.682 4.118 0 2.958-1.48 4.766-4.437 5.423L87.05 28zm-7.104-9.715c2.107 0 3.16-.802 3.16-2.407 0-1.701-1.12-2.552-3.363-2.552H69.534v4.959h10.41zm32.97 3.857c0 1.875-.938 3.407-2.814 4.596-1.875 1.19-4.388 1.784-7.54 1.784-3.17 0-5.693-.594-7.569-1.784-1.875-1.189-2.813-2.72-2.813-4.596V10.165h3.48v11.281c0 2.63 2.301 3.944 6.902 3.944 4.582 0 6.873-1.315 6.873-3.944V10.165h3.48v11.977zm22.442-7.569c-2.32-1.218-4.843-1.827-7.569-1.827-3.963 0-5.945.706-5.945 2.117 0 .831.744 1.373 2.233 1.624 2.03.174 4.06.358 6.09.551 2.92.29 4.998.812 6.235 1.566 1.373.831 2.06 2.098 2.06 3.799 0 1.914-.856 3.393-2.567 4.437-1.711 1.044-4.19 1.566-7.439 1.566-4.582 0-8.246-1.044-10.99-3.132l1.884-2.465c2.455 1.72 5.471 2.581 9.048 2.581 2.01 0 3.567-.256 4.67-.768 1.101-.513 1.652-1.194 1.652-2.045 0-.947-.677-1.614-2.03-2.001-.754-.213-1.924-.358-3.509-.435-2.475-.116-3.992-.203-4.553-.261-2.204-.213-3.828-.686-4.872-1.421s-1.566-1.808-1.566-3.219c0-1.701.836-3.05 2.509-4.045 1.672-.996 4.016-1.494 7.032-1.494 4.021 0 7.28.87 9.773 2.61l-2.146 2.262z" fill="#111" fill-rule="evenodd"/>
</svg>
