<svg xmlns="http://www.w3.org/2000/svg" width="125" height="40" viewBox="0 0 125 40">
  <g fill="#111" fill-rule="nonzero">
    <path d="M37.865 19.388c.097-.158.282-.174.554-.035.268.136.539.336.809.597.27.263.496.543.681.837.183.292.239.52.165.678-.467.863-1.08 1.845-1.84 2.95a26.11 26.11 0 0 1-2.522 3.116c-.92.982-1.89 1.8-2.91 2.459-1.017.66-2.018.987-2.999.987-.345 0-.718-.114-1.123-.341a5.221 5.221 0 0 1-1.124-.851 7.015 7.015 0 0 1-.883-1.059c-.247-.366-.37-.68-.37-.955 0-.544.166-1.213.498-2.012.33-.793.748-1.65 1.251-2.574.503-.919 1.036-1.885 1.601-2.896a62.4 62.4 0 0 0 1.547-2.952c-1.939 1.797-3.584 3.512-4.934 5.15-1.349 1.637-2.46 3.086-3.33 4.348-.872 1.261-1.53 2.269-1.972 3.018-.44.75-.723 1.126-.847 1.126-.148 0-.368-.074-.663-.221a6.091 6.091 0 0 1-.92-.58 4.444 4.444 0 0 1-.83-.801c-.232-.292-.349-.592-.349-.886 0-.18.178-.617.534-1.31.356-.695.804-1.53 1.344-2.507.54-.98 1.124-2.044 1.748-3.204.627-1.16 1.221-2.296 1.786-3.41-2.186 2.093-3.958 3.939-5.32 5.54-1.364 1.606-2.449 2.952-3.258 4.043a72.611 72.611 0 0 0-1.786 2.49c-.381.568-.67.853-.865.853-.22 0-.48-.101-.773-.307a6.004 6.004 0 0 1-.83-.7 7.179 7.179 0 0 1-.662-.766c-.181-.255-.273-.44-.273-.554 0-.046.117-.326.35-.835.233-.512.533-1.165.902-1.958.369-.792.792-1.7 1.27-2.71.48-1.011.964-2.039 1.453-3.086.492-1.046.977-2.073 1.455-3.084.479-1.013.903-1.927 1.27-2.746.368-.819.669-1.493.902-2.03.233-.533.35-.845.35-.938 0-.272.135-.385.404-.34.27.046.558.17.864.375.307.204.596.447.866.733.27.285.404.527.404.733 0 .114-.104.426-.313.938-.21.511-.491 1.154-.847 1.927l-1.177 2.557c-.43.932-.865 1.862-1.308 2.793.908-.979 1.841-1.965 2.798-2.964.957-1 1.853-1.915 2.688-2.746.834-.83 1.566-1.539 2.192-2.13.625-.593 1.06-.966 1.306-1.126.05-.045.098-.067.147-.067.196 0 .424.091.68.272.258.182.504.416.738.7.232.285.428.592.589.919.159.33.239.632.239.904 0 .136-.056.37-.166.7-.11.329-.264.72-.46 1.175-.197.456-.423.962-.68 1.518-.258.559-.522 1.13-.792 1.722.76-.821 1.546-1.66 2.356-2.523.81-.866 1.565-1.666 2.264-2.403.7-.74 1.313-1.36 1.841-1.86.526-.501.89-.806 1.086-.92.023 0 .037-.006.037-.019 0-.011.024-.018.073-.018l.074.035c.049 0 .098.012.146.033.148.069.337.189.57.359a3.855 3.855 0 0 1 1.25 1.586c.161.366.242.761.242 1.194 0 .34-.135.835-.405 1.483a31.75 31.75 0 0 1-1.014 2.166c-.405.794-.84 1.634-1.305 2.507-.469.873-.903 1.708-1.309 2.504a31.891 31.891 0 0 0-1.011 2.165c-.27.648-.406 1.142-.406 1.483.59 0 1.24-.225 1.952-.68.712-.452 1.428-1.065 2.154-1.84a26.105 26.105 0 0 0 2.153-2.642c.716-.99 1.38-2.016 1.993-3.087zm-26.03 4.842c.05-.091.104-.188.165-.29.062-.1.117-.211.167-.324.049-.114.104-.24.166-.374.061-.136.128-.262.203-.376l.33-.715c.05-.113.098-.226.147-.34.05-.112.099-.214.148-.306.05-.093.086-.18.11-.273.025-.092.05-.159.074-.207.025-.067.05-.125.073-.173-.023.048-.06.1-.11.173-.049.069-.122.216-.22.443a3.783 3.783 0 0 0-.33.614c-.05.115-.11.234-.185.357a2.301 2.301 0 0 0-.184.394l-.332.716-.147.34c-.05.115-.097.215-.147.307-.05.112-.086.211-.111.29a.94.94 0 0 1-.073.188 1.108 1.108 0 0 1-.074.172c.024-.046.061-.1.11-.172a.398.398 0 0 0 .11-.175c.024-.064.062-.157.11-.27zm1.14-3.205c-.122.25-.227.477-.313.68-.085.207-.152.375-.202.512-.073.161-.134.309-.183.442a2.63 2.63 0 0 1 .22-.442c.075-.135.155-.3.24-.492.087-.194.19-.416.313-.667l.388-.785c.136-.274.276-.568.423-.887.147-.295.294-.601.441-.92l.441-.955.442-.955c.148-.318.283-.635.405-.953.147-.32.275-.613.386-.886.111-.274.227-.535.35-.785l.442-1.229c.024-.068.048-.126.074-.172l.074-.135a.314.314 0 0 0 .037-.136c-.05.136-.11.284-.184.444a12.197 12.197 0 0 1-.516 1.193c-.123.25-.246.512-.368.785-.123.273-.257.559-.404.852-.123.32-.258.636-.405.955l-.441.954c-.32.659-.621 1.294-.903 1.907a237.25 237.25 0 0 0-.757 1.675zm.037 1.704a16.72 16.72 0 0 1 .516-1.021 30.066 30.066 0 0 0 .588-1.159c.097-.205.19-.406.276-.598.086-.192.166-.378.239-.561.097-.178.177-.366.24-.545.06-.18.129-.354.202-.51.05-.159.097-.302.147-.426.05-.125.087-.234.11-.325a.263.263 0 0 0 .038-.119c0-.034.011-.062.037-.085 0-.023.012-.047.037-.068 0 .021-.013.045-.037.068a.196.196 0 0 0-.056.085.941.941 0 0 1-.056.12l-.167.306c-.06.114-.129.239-.202.373a16.873 16.873 0 0 1-.516 1.023c-.099.179-.19.368-.277.562-.086.194-.177.392-.276.597-.097.207-.19.407-.276.613-.085.207-.177.4-.276.58-.098.18-.177.36-.239.527-.061.173-.13.333-.202.49a4.01 4.01 0 0 0-.167.41c-.037.112-.08.226-.129.339a.859.859 0 0 1-.11.207c-.023.023-.037.046-.037.069.05-.094.11-.18.184-.274.049-.092.104-.187.165-.29.068-.097.148-.228.244-.388zm7.548-6c.196-.182.363-.36.497-.527.135-.173.264-.314.388-.427.122-.136.232-.261.33-.375l-.368.34c-.123.115-.258.25-.404.409-.147.16-.32.329-.516.51-.197.205-.4.415-.607.633l-.681.7c-.246.25-.49.5-.737.748-.246.252-.491.5-.736.752a248.33 248.33 0 0 0-1.436 1.533c-.247.25-.468.493-.664.732-.196.24-.392.45-.589.632a8.464 8.464 0 0 0-.497.561 3.483 3.483 0 0 1-.387.427c-.049.069-.086.123-.11.154a.91.91 0 0 1-.11.12l-.111.1c.097-.112.209-.24.33-.375.123-.113.258-.251.406-.407.146-.159.318-.329.515-.512a65.02 65.02 0 0 0 1.307-1.33c.48-.502.964-1.014 1.454-1.534.49-.522.976-1.034 1.454-1.531.48-.503.903-.945 1.272-1.334zm.885 4.637c.147-.293.257-.533.33-.716.049-.094.098-.18.147-.275a.762.762 0 0 1-.147.275c-.05.092-.11.192-.184.305a7.026 7.026 0 0 0-.22.375 7.66 7.66 0 0 0-.553.987 3.492 3.492 0 0 0-.314.562c-.086.192-.19.379-.313.561-.122.205-.232.406-.33.596-.098.194-.197.38-.294.562a20.045 20.045 0 0 0-.516 1.021l-.33.716c-.05.092-.087.183-.111.273l.147-.273c.073-.16.196-.385.368-.68.172-.292.362-.633.57-1.006.21-.375.41-.755.608-1.142.122-.18.227-.372.313-.579.085-.205.19-.398.313-.58.097-.178.19-.352.277-.51.086-.152.164-.313.239-.472zm4.749-4.944a.852.852 0 0 0-.093.239.62.62 0 0 1-.056.172.532.532 0 0 0-.037.171.364.364 0 0 0 .074-.137c.024-.044.049-.1.074-.17.023-.068.06-.148.11-.239.074-.181.16-.374.258-.58.096-.206.172-.42.22-.647.074-.226.11-.467.11-.717a.598.598 0 0 1-.037-.188.329.329 0 0 0-.037-.154 2.77 2.77 0 0 0-.11-.272c-.074-.181-.147-.307-.22-.375-.026-.02-.038-.056-.038-.1 0-.023-.013-.035-.037-.035v.034c0 .047.012.08.037.1a.31.31 0 0 1 .093.172c.013.071.043.15.093.24a.58.58 0 0 1 .074.272c.023.07.036.172.036.308a3.195 3.195 0 0 1-.074.681c-.05.114-.086.221-.11.325-.024.102-.061.211-.11.325-.05.114-.087.214-.111.306-.022.09-.059.179-.109.269zm2.54.069c.148-.182.3-.354.46-.513.16-.158.314-.318.461-.478a6.38 6.38 0 0 1 .423-.477c.135-.135.264-.274.387-.409a2.76 2.76 0 0 0 .314-.34c.084-.115.165-.206.238-.275a.495.495 0 0 0 .093-.1.26.26 0 0 1 .057-.07l.072-.067-.22.206a5.969 5.969 0 0 0-.276.272c-.11.114-.227.227-.35.341-.124.114-.256.238-.405.374a9.443 9.443 0 0 0-.441.443c-.148.183-.3.348-.46.495-.16.148-.314.312-.461.493-.173.183-.331.354-.48.512-.146.16-.306.32-.48.478a3.496 3.496 0 0 1-.386.479c-.135.135-.264.272-.387.408a8.903 8.903 0 0 0-.313.36c-.087.099-.167.184-.24.253a1.746 1.746 0 0 0-.22.24l.22-.206c.073-.069.166-.154.277-.255.11-.1.226-.22.35-.357.122-.114.25-.24.386-.375.135-.136.277-.295.423-.478a16.862 16.862 0 0 1 .958-.954zm-1.581 9.342a.504.504 0 0 0 .093-.204.577.577 0 0 1 .056-.174.372.372 0 0 1 .073-.136c-.024 0-.037.013-.037.032 0 .02-.007.042-.019.053-.014.015-.02.027-.02.053-.049.046-.123.16-.22.34l-.22.511c-.05.117-.087.223-.111.327-.023.1-.05.212-.074.326a3.656 3.656 0 0 0-.055.327c-.013.1-.019.213-.019.326 0 .206.037.387.11.545.024.093.05.168.074.223.024.057.05.107.073.153l.111.101c-.024 0-.037-.014-.037-.034 0-.022-.007-.035-.02-.035-.013 0-.018-.021-.018-.066a2.25 2.25 0 0 1-.11-.342 1.706 1.706 0 0 1-.057-.56c.012-.193.043-.406.092-.633.024-.112.05-.213.074-.304.024-.093.05-.193.074-.309.098-.235.16-.405.187-.52zm1.73-3.342c.096-.205.202-.41.311-.613l.35-.648c.123-.205.233-.413.331-.631.098-.216.21-.426.332-.634.097-.18.196-.366.294-.545a5.57 5.57 0 0 0 .256-.548c.075-.16.142-.3.203-.425.06-.127.117-.247.167-.361a4.58 4.58 0 0 1 .146-.307.711.711 0 0 1-.146.307 2.4 2.4 0 0 1-.184.341c-.074.114-.16.252-.257.407l-.59 1.09c-.123.21-.24.409-.35.616-.11.208-.226.42-.35.647a6.084 6.084 0 0 0-.33.63 4.36 4.36 0 0 1-.33.6c-.198.408-.382.786-.554 1.125-.097.18-.171.332-.22.461-.05.126-.098.232-.147.325l-.148.276a.744.744 0 0 1 .148-.276c.049-.093.11-.2.184-.325.073-.129.16-.268.257-.426.097-.182.196-.367.294-.547.098-.178.21-.357.332-.539zm2.062-8.013c.147-.159.288-.319.424-.479.134-.158.262-.293.385-.408a.73.73 0 0 0 .13-.153.834.834 0 0 1 .13-.154l.11-.1-.11.1a.837.837 0 0 1-.167.119.944.944 0 0 0-.166.119c-.123.114-.257.246-.405.393a7.446 7.446 0 0 0-.442.494c-.146.159-.289.319-.422.479-.136.16-.265.294-.388.408a2.75 2.75 0 0 0-.256.34c-.05.046-.075.08-.075.102l.405-.376c.122-.114.257-.245.405-.392.146-.146.294-.31.442-.492z"/>
    <path d="M46.998 19.32c.073-.113.22-.14.442-.086.22.057.447.183.681.375.233.192.445.447.643.765.196.32.293.66.293 1.026 0 .25-.13.658-.387 1.226a16.646 16.646 0 0 1-1.065 1.924 24.218 24.218 0 0 1-1.603 2.214 16.072 16.072 0 0 1-2.007 2.081 11.862 11.862 0 0 1-2.265 1.553c-.786.407-1.571.613-2.356.613-.247 0-.597-.094-1.05-.273a6.766 6.766 0 0 1-1.363-.754 6.597 6.597 0 0 1-1.197-1.07c-.342-.401-.517-.828-.517-1.281 0-.498.136-1.206.407-2.11.27-.91.62-1.9 1.05-2.966.429-1.067.889-2.157 1.38-3.273.49-1.114.95-2.125 1.38-3.037.43-.908.803-1.664 1.122-2.266.32-.6.504-.938.552-1.007.148-.158.365-.158.646 0 .282.16.558.393.827.7.27.306.504.636.7.987.198.352.294.653.294.904 0 .091-.14.46-.423 1.107-.282.647-.633 1.42-1.05 2.318-.418.9-.86 1.86-1.325 2.884a121.95 121.95 0 0 0-1.251 2.828 27.108 27.108 0 0 0-.829 2.148c-.184.566-.19.851-.02.851.958 0 1.854-.297 2.69-.902.832-.6 1.6-1.336 2.3-2.197.7-.868 1.332-1.78 1.896-2.746.57-.962 1.035-1.81 1.405-2.536zM35.95 26.14c.05-.159.124-.353.22-.58.073-.18.16-.397.257-.647s.21-.535.331-.853c.05-.16.11-.327.183-.495.074-.17.136-.345.184-.525.073-.18.147-.367.221-.545.074-.181.16-.366.257-.545.147-.387.307-.79.48-1.193.172-.407.355-.824.552-1.228.172-.407.343-.821.517-1.227.17-.408.343-.808.516-1.194a5.15 5.15 0 0 0 .202-.408c.038-.091.068-.171.093-.24.024-.067.05-.14.073-.22.024-.08.075-.2.148-.359.147-.319.27-.6.368-.852.097-.25.182-.467.255-.649.05-.09.086-.172.111-.24.023-.066.05-.124.074-.17.023-.068.049-.126.074-.171h-.037l-.295.546a8.85 8.85 0 0 0-.312.648c-.11.25-.24.522-.388.817-.292.615-.557 1.167-.791 1.655a45.092 45.092 0 0 0-.864 1.958 50.871 50.871 0 0 0-1.805 4.6c-.098.32-.19.608-.276.872-.087.261-.153.484-.204.666a.744.744 0 0 0-.074.275.39.39 0 0 1-.036.172c-.02.064-.034.11-.034.132zm1.73-3.24c.05-.158.094-.29.13-.407.037-.113.08-.227.129-.342.05-.092.087-.192.11-.305-.023.09-.06.179-.11.27l-.165.327c-.06.13-.117.269-.168.427-.145.321-.292.66-.441 1.023l-.44 1.225c-.075.21-.148.41-.22.615a6.28 6.28 0 0 0-.186.614c-.048.182-.096.367-.146.548-.05.18-.086.366-.11.546-.05.158-.074.3-.074.425v.36c0 .091.024.16.074.205 0 .023.013.047.037.069-.024-.022-.037-.046-.037-.07-.023-.019-.036-.09-.036-.205 0-.205.036-.463.11-.784.049-.161.097-.329.146-.516.05-.177.098-.362.147-.545l.442-1.227c.05-.206.11-.407.182-.614.075-.203.148-.397.222-.58.074-.206.147-.394.22-.56.075-.176.135-.337.185-.499zm6.702-11.355c-.123 0-.277-.079-.46-.238a5.293 5.293 0 0 1-.554-.56 3.87 3.87 0 0 1-.458-.666c-.124-.228-.199-.399-.22-.512 0-.136.085-.447.256-.938.172-.488.387-1 .644-1.534.257-.532.526-1.017.81-1.45.28-.431.509-.647.682-.647.196 0 .436.125.716.375.283.251.546.528.792.837.245.305.46.6.644.885.183.285.275.472.275.561 0 .092-.134.341-.404.752-.27.408-.59.847-.957 1.312-.368.467-.724.888-1.066 1.261-.346.376-.577.562-.7.562zm-.221 14.698c.073-.07.152-.148.24-.24.085-.093.175-.193.276-.309a3.39 3.39 0 0 0 .256-.339 3.15 3.15 0 0 1 .258-.34c.096-.113.183-.227.257-.341.073-.113.147-.228.22-.338l.221-.343c.074-.113.134-.213.183-.305.049-.095.092-.18.131-.274a.52.52 0 0 1 .128-.205 1.33 1.33 0 0 1 .074-.172 1.985 1.985 0 0 1-.11.172.855.855 0 0 0-.147.186c-.05.08-.097.166-.145.254a6.955 6.955 0 0 0-.443.613l-.22.341a3.23 3.23 0 0 1-.257.34 3.045 3.045 0 0 0-.259.34 2.877 2.877 0 0 1-.256.343 2.192 2.192 0 0 1-.24.303c-.087.094-.166.18-.24.274-.147.18-.256.32-.33.407a.412.412 0 0 1-.147.137l.148-.137c.12-.063.256-.185.402-.367zm2.945-3.685c.05-.112.093-.214.13-.306a.871.871 0 0 1 .13-.238l.11-.21-.11.21c-.051.062-.105.137-.167.216a1.41 1.41 0 0 0-.167.29c-.05.113-.116.232-.202.36a4.195 4.195 0 0 0-.242.392c-.07.136-.152.273-.24.408-.085.135-.177.286-.275.443l-.553.82a2.798 2.798 0 0 1-.24.373 4.427 4.427 0 0 0-.238.34 3.612 3.612 0 0 1-.205.29c-.06.08-.116.14-.165.187a.564.564 0 0 1-.11.136l-.038.028.037-.028c.025-.022.043-.035.056-.035.012 0 .043-.021.094-.067a1.69 1.69 0 0 1 .183-.209 1.39 1.39 0 0 0 .22-.272c.074-.114.153-.227.241-.34.085-.112.176-.224.275-.337l.553-.824c.097-.158.19-.306.276-.442.087-.136.167-.273.242-.409.072-.136.146-.27.219-.407a3.35 3.35 0 0 0 .186-.369z"/>
    <path d="M63.454 19.422c.098-.16.282-.175.552-.034.27.135.55.329.832.579.283.251.512.522.678.82.172.296.221.522.147.68-.468.865-1.082 1.845-1.84 2.95a25.898 25.898 0 0 1-2.522 3.116c-.92.981-1.889 1.801-2.91 2.473-1.019.676-2.008 1.012-2.964 1.012-.345 0-.718-.123-1.124-.362a5.96 5.96 0 0 1-1.123-.853 6.393 6.393 0 0 1-.884-1.04c-.245-.361-.367-.679-.367-.953 0-.545.166-1.214.495-2.012.33-.794.75-1.656 1.253-2.59.503-.934 1.036-1.904 1.603-2.915a45.484 45.484 0 0 0 1.509-2.951c-1.94 1.796-3.615 3.51-5.024 5.148-1.413 1.636-2.59 3.084-3.537 4.347-.944 1.26-1.67 2.267-2.171 3.018-.505.75-.818 1.126-.939 1.126-.148 0-.344-.074-.59-.22a3.62 3.62 0 0 1-.717-.58 4.048 4.048 0 0 1-.607-.803 1.727 1.727 0 0 1-.257-.883c0-.181.19-.702.57-1.555a96.01 96.01 0 0 1 1.436-3.034l1.86-3.77c.663-1.34 1.284-2.602 1.86-3.783a97.342 97.342 0 0 0 1.436-3.051c.38-.854.57-1.392.57-1.621 0-.046.013-.09.037-.136.05-.113.146-.17.293-.17.198 0 .423.057.681.17a4.1 4.1 0 0 1 .755.444c.246.182.446.405.608.664.16.263.24.53.24.802 0 .135-.075.42-.22.853a23.11 23.11 0 0 1-.609 1.552c-.256.6-.545 1.26-.865 1.976-.32.716-.65 1.451-.993 2.2.76-.84 1.553-1.7 2.375-2.574.822-.876 1.59-1.689 2.303-2.439a63.132 63.132 0 0 1 1.878-1.91c.541-.522.907-.841 1.104-.954.022 0 .041-.006.055-.019a.086.086 0 0 1 .057-.018c.026 0 .05.012.072.035.075 0 .124.012.149.034.147.068.335.188.569.358.233.172.46.387.68.65.22.26.41.572.569.936.161.366.241.774.241 1.227 0 .341-.136.835-.405 1.484-.269.647-.6 1.364-.992 2.147-.394.786-.83 1.616-1.308 2.492-.48.873-.914 1.709-1.306 2.504a37.296 37.296 0 0 0-.995 2.165c-.269.649-.405 1.142-.405 1.483.59 0 1.233-.224 1.934-.679.7-.45 1.412-1.065 2.135-1.839a27.656 27.656 0 0 0 2.153-2.623 36.045 36.045 0 0 0 1.985-3.074zM48.984 21.4c.121-.228.232-.455.33-.68.096-.227.21-.453.33-.682.123-.25.234-.485.33-.716.097-.225.208-.454.331-.68l.276-.649.24-.579c.074-.181.14-.34.202-.48l.167-.375a.263.263 0 0 0 .038-.118c0-.034.013-.074.035-.12 0-.045.014-.078.038-.1l-1.766 3.748c-.222.48-.438.942-.644 1.38-.211.442-.402.847-.57 1.21-.098.18-.18.34-.24.48l-.168.37a1.02 1.02 0 0 0-.146.31c.05-.095.11-.193.182-.31l.443-.816c.096-.182.19-.368.277-.562.088-.192.191-.403.315-.63zm1.25-1.74c0-.021.015-.045.038-.067a.114.114 0 0 0 .037-.085c0-.035.023-.074.074-.12.122-.181.256-.432.405-.752.097-.16.189-.329.276-.513.086-.181.178-.363.277-.545l.293-.614c.097-.205.196-.42.293-.648a6.06 6.06 0 0 0 .258-.631c.073-.215.147-.426.22-.633.073-.203.14-.404.204-.595.058-.195.116-.37.166-.528a4.18 4.18 0 0 0 .11-.853v-.136a.136.136 0 0 0-.037-.1c-.024-.023-.037-.046-.037-.07l.037.07V13.076a.329.329 0 0 0-.037.154.58.58 0 0 1-.036.187.519.519 0 0 0-.095.22c-.013.08-.03.155-.055.222-.05.181-.116.365-.203.546a5.56 5.56 0 0 0-.24.581c-.096.181-.19.38-.278.596a9.4 9.4 0 0 1-.276.632c-.096.226-.188.443-.276.645-.087.208-.166.41-.24.615-.097.206-.183.398-.257.58a11.18 11.18 0 0 1-.22.513c-.05.18-.097.335-.147.46a3 3 0 0 1-.146.325l-.108.308zm2.948 5.593a4.21 4.21 0 0 0 .314-.632c.085-.215.188-.427.313-.633.123-.226.232-.445.329-.647.097-.206.209-.407.33-.614.197-.453.38-.82.554-1.092.073-.18.134-.333.183-.461.05-.126.097-.232.146-.326.026-.065.06-.146.111-.238.023-.02.036-.046.036-.066 0 .02-.013.045-.036.066a.767.767 0 0 0-.147.206c-.05.092-.11.2-.183.324-.073.128-.16.268-.257.429-.097.16-.198.328-.294.51-.097.184-.209.366-.33.55-.123.204-.24.408-.35.613-.109.205-.227.417-.35.644-.096.207-.196.414-.292.634-.1.214-.198.427-.296.63-.049.117-.093.218-.129.31-.036.091-.08.18-.129.271a2.057 2.057 0 0 0-.11.307c-.024.095-.05.181-.075.272a1.322 1.322 0 0 0-.109.482 2.492 2.492 0 0 0-.057.185.835.835 0 0 0-.02.186v.307l.038-.067c0-.093.013-.172.037-.24.049-.25.135-.52.257-.818.073-.181.152-.364.24-.547.085-.18.176-.364.276-.545zm3.901 5.115a.673.673 0 0 1 .204-.086.34.34 0 0 0 .166-.085.58.58 0 0 0 .148-.102l-.148.068c-.146.047-.282.093-.406.135-.318.136-.71.227-1.177.27h-.33a.643.643 0 0 1-.166-.019.808.808 0 0 0-.168-.018 1.535 1.535 0 0 1-.553-.172l-.22-.102c-.05 0-.097-.02-.147-.067-.05 0-.072-.006-.072-.017 0-.014-.014-.02-.038-.02-.023 0-.036-.012-.036-.033l.11.1c.05.02.096.058.146.1l.22.1c.075.048.153.088.241.12.086.032.19.06.313.087.049.019.103.033.166.033.06 0 .118.013.165.032h.369c.123 0 .232-.013.329-.032.097-.02.21-.058.332-.102.123-.02.224-.05.31-.085a.882.882 0 0 0 .242-.105zm-.108-12.036a35.51 35.51 0 0 1-.994 1.841l-.276.512c-.088.16-.168.329-.24.513-.098.16-.178.314-.24.46-.062.148-.13.29-.204.425-.05.136-.097.257-.148.36-.05.1-.086.203-.109.29a.524.524 0 0 0-.074.239c.023-.064.06-.144.11-.24.052-.068.094-.152.131-.25.037-.102.092-.221.166-.363.147-.252.3-.536.46-.867.16-.331.336-.668.532-1.01.098-.177.19-.352.277-.511.087-.158.168-.32.24-.48.097-.18.184-.346.258-.493.073-.147.134-.28.183-.392.05-.114.097-.228.147-.34.05-.115.098-.215.146-.309.05-.091.086-.17.11-.24-.05.07-.097.149-.145.24-.051.067-.098.16-.147.272-.051.115-.11.23-.183.343z"/>
    <path d="M72.548 19.32c.073-.113.221-.14.443-.086.218.057.446.183.679.375.232.192.445.447.642.765.198.32.292.66.292 1.026 0 .25-.13.658-.387 1.226a16.486 16.486 0 0 1-1.065 1.924 24.006 24.006 0 0 1-1.6 2.214 16.024 16.024 0 0 1-2.01 2.081 11.725 11.725 0 0 1-2.265 1.553c-.788.407-1.57.613-2.356.613-.249 0-.597-.094-1.05-.273a6.785 6.785 0 0 1-1.364-.754 6.635 6.635 0 0 1-1.197-1.07c-.343-.401-.518-.828-.518-1.281 0-.498.136-1.206.407-2.11.27-.91.619-1.9 1.049-2.966a122.478 122.478 0 0 1 2.758-6.31c.428-.908.802-1.664 1.123-2.266.322-.6.503-.938.556-1.007.143-.158.365-.158.642 0 .285.16.56.393.83.7.268.306.5.636.699.987.197.354.291.653.291.904 0 .091-.137.46-.424 1.107-.282.647-.632 1.42-1.05 2.318-.415.9-.86 1.86-1.324 2.884-.467 1.02-.884 1.964-1.251 2.828a27.046 27.046 0 0 0-.828 2.148c-.183.566-.19.851-.02.851.958 0 1.853-.297 2.689-.902.832-.6 1.604-1.336 2.303-2.197.699-.868 1.33-1.78 1.897-2.746.574-.962 1.04-1.81 1.41-2.536zm-11.045 6.82a6.83 6.83 0 0 1 .22-.58c.072-.18.16-.397.257-.647s.212-.535.33-.853c.05-.16.107-.327.181-.495a3.42 3.42 0 0 0 .18-.525c.075-.18.148-.367.222-.545.072-.181.16-.366.254-.545.147-.387.309-.79.48-1.193.176-.407.359-.824.557-1.228.174-.407.342-.821.516-1.227.175-.408.345-.808.519-1.194a5.43 5.43 0 0 0 .204-.408l.093-.24c.023-.067.052-.14.074-.22.023-.08.073-.2.147-.359.144-.319.269-.6.368-.852.097-.25.18-.467.254-.649.053-.09.089-.172.11-.24.022-.066.05-.124.073-.17.023-.068.05-.126.074-.171h-.033l-.296.546a9.62 9.62 0 0 0-.314.648c-.109.25-.238.522-.386.817-.29.615-.558 1.167-.792 1.655a46.269 46.269 0 0 0-.864 1.958 50.837 50.837 0 0 0-1.808 4.6c-.097.32-.19.608-.276.872-.086.261-.153.484-.202.666a.714.714 0 0 0-.074.275.403.403 0 0 1-.037.172c-.017.064-.031.11-.031.132zm1.729-3.24l.131-.407c.034-.113.078-.227.13-.342.048-.092.087-.192.11-.305-.023.09-.062.179-.11.27-.052.097-.1.202-.168.327-.058.13-.116.269-.165.427-.147.321-.294.66-.444 1.023l-.443 1.225c-.072.21-.147.41-.22.615a6.27 6.27 0 0 0-.183.614c-.05.182-.097.367-.148.548a4.03 4.03 0 0 0-.109.546c-.05.158-.074.3-.074.425v.36c0 .091.023.16.074.205 0 .023.013.047.037.069-.024-.022-.037-.046-.037-.07-.023-.019-.036-.09-.036-.205 0-.205.036-.463.109-.784.05-.161.097-.329.146-.516.052-.177.096-.362.15-.545l.44-1.23a6.94 6.94 0 0 1 .184-.613c.072-.203.147-.395.219-.58.073-.204.147-.392.217-.562.08-.172.142-.333.19-.495zm6.7-11.355c-.123 0-.275-.079-.459-.238a5.391 5.391 0 0 1-.555-.56 3.986 3.986 0 0 1-.46-.666c-.123-.228-.197-.399-.218-.512 0-.136.085-.447.255-.938.175-.488.387-1 .644-1.534.254-.532.524-1.017.807-1.45.286-.431.515-.647.685-.647.196 0 .436.125.717.375.28.25.544.528.791.837.244.305.46.6.642.885.182.285.276.472.276.561 0 .092-.135.341-.405.752a23.035 23.035 0 0 1-2.021 2.573c-.343.376-.575.562-.698.562zm-.219 14.698c.075-.07.153-.148.24-.24.085-.093.176-.193.276-.309.098-.112.183-.226.257-.339.073-.113.16-.227.258-.34.096-.113.183-.227.255-.341l.218-.338c.072-.114.146-.227.217-.343.074-.113.136-.213.183-.305.051-.095.097-.18.133-.274a.544.544 0 0 1 .131-.205c.023-.07.051-.128.074-.172a1.24 1.24 0 0 1-.112.172.852.852 0 0 0-.145.186c-.051.08-.097.166-.145.254a7.812 7.812 0 0 0-.443.613c-.073.115-.145.227-.22.341-.074.117-.16.227-.255.34-.1.114-.185.227-.26.34a2.866 2.866 0 0 1-.255.343 2.335 2.335 0 0 1-.24.303c-.087.094-.167.18-.24.274-.148.18-.257.32-.33.407a.423.423 0 0 1-.144.137l.145-.137c.119-.063.255-.185.402-.367zm2.944-3.685c.051-.112.095-.214.131-.306a.872.872 0 0 1 .131-.238l.109-.21-.109.21c-.051.062-.103.137-.167.216a1.5 1.5 0 0 0-.17.29 2.092 2.092 0 0 1-.201.36 3.835 3.835 0 0 0-.242.392 5.618 5.618 0 0 1-.24.408c-.085.135-.175.286-.277.443l-.551.82a2.894 2.894 0 0 1-.24.374 3.928 3.928 0 0 0-.24.341 3.126 3.126 0 0 1-.206.29c-.058.079-.116.14-.168.187a.489.489 0 0 1-.108.135l-.036.03.036-.03c.022-.02.042-.034.058-.034.013 0 .043-.02.093-.066.05-.068.11-.136.183-.21.074-.069.148-.158.22-.272.074-.115.152-.227.24-.34a5.44 5.44 0 0 1 .277-.337l.551-.824c.098-.158.193-.307.281-.441.086-.136.166-.273.238-.41.074-.136.149-.27.221-.407a4.18 4.18 0 0 0 .186-.37z"/>
    <path d="M96.957 19.388c.096-.158.283-.174.553-.035.269.136.54.336.81.597.27.263.497.543.68.837.181.292.24.52.167.678-.468.863-1.081 1.845-1.842 2.95a26.187 26.187 0 0 1-2.52 3.117c-.92.98-1.891 1.8-2.91 2.458-1.016.66-2.018.987-3.001.987-.343 0-.716-.114-1.122-.341a5.267 5.267 0 0 1-1.126-.851 7.045 7.045 0 0 1-.882-1.059c-.247-.365-.368-.68-.368-.955 0-.545.169-1.214.5-2.013.328-.793.75-1.65 1.25-2.574a333.5 333.5 0 0 1 1.606-2.896 62.242 62.242 0 0 0 1.543-2.95c-1.938 1.797-3.582 3.512-4.932 5.15-1.35 1.635-2.463 3.085-3.335 4.347-.872 1.26-1.53 2.268-1.968 3.017-.442.75-.724 1.127-.848 1.127-.146 0-.367-.074-.664-.22-.29-.147-.6-.342-.92-.58a4.303 4.303 0 0 1-.827-.803c-.234-.29-.35-.592-.35-.886 0-.178.175-.617.531-1.309.358-.694.803-1.53 1.342-2.508.541-.978 1.125-2.044 1.75-3.204a163.16 163.16 0 0 0 1.787-3.409c-2.187 2.092-3.961 3.938-5.323 5.54-1.364 1.605-2.45 2.951-3.258 4.042a80.962 80.962 0 0 0-1.786 2.49c-.379.568-.67.853-.865.853-.22 0-.482-.101-.775-.307a6.172 6.172 0 0 1-.828-.7 7.075 7.075 0 0 1-.663-.766c-.183-.25-.28-.433-.28-.546 0-.048.117-.325.352-.836.234-.51.531-1.166.903-1.957.368-.794.792-1.7 1.272-2.71.478-1.01.96-2.037 1.451-3.084.49-1.045.977-2.074 1.452-3.088.483-1.01.906-1.926 1.27-2.745.368-.817.668-1.493.902-2.029.234-.534.352-.846.352-.938 0-.273.136-.386.407-.341.27.046.56.172.866.375.307.204.598.449.865.733.27.285.405.529.405.733 0 .114-.103.427-.314.939-.211.51-.49 1.154-.846 1.927-.356.773-.748 1.626-1.178 2.555-.43.933-.866 1.865-1.307 2.796.908-.98 1.84-1.964 2.8-2.965a139.147 139.147 0 0 1 2.69-2.746c.832-.83 1.564-1.54 2.187-2.13.627-.593 1.06-.968 1.307-1.126.051-.045.097-.068.147-.068.196 0 .424.092.678.272.257.183.505.417.739.699.232.287.428.593.588.921.162.33.242.631.242.904 0 .136-.057.369-.168.7-.11.33-.263.721-.46 1.176a72.85 72.85 0 0 1-.679 1.519l-.793 1.723c.76-.82 1.548-1.66 2.357-2.524.811-.865 1.567-1.665 2.265-2.403a52.4 52.4 0 0 1 1.84-1.858c.524-.501.89-.807 1.087-.921.022 0 .037-.006.037-.019 0-.01.02-.017.072-.017l.074.034c.05 0 .097.012.145.034a3.973 3.973 0 0 1 1.249 1.006 3.8 3.8 0 0 1 .57.938c.16.366.24.761.24 1.194 0 .34-.135.836-.404 1.483-.272.648-.606 1.37-1.014 2.165-.407.796-.84 1.633-1.307 2.505-.466.873-.904 1.71-1.306 2.506a31.625 31.625 0 0 0-1.015 2.167c-.269.646-.405 1.142-.405 1.483.592 0 1.241-.226 1.953-.682.712-.453 1.43-1.065 2.152-1.839a25.946 25.946 0 0 0 2.152-2.643 33.894 33.894 0 0 0 2.002-3.096zM70.926 24.23c.055-.091.105-.188.17-.29.058-.1.117-.211.166-.324.053-.114.105-.24.17-.374.06-.136.13-.262.203-.376l.33-.715c.05-.113.096-.226.145-.34.053-.112.096-.214.143-.306a.885.885 0 0 0 .11-.273c.024-.092.053-.159.075-.207.023-.067.053-.125.074-.173-.021.048-.058.1-.11.173a2.519 2.519 0 0 0-.22.443 3.514 3.514 0 0 0-.329.614 3.19 3.19 0 0 1-.183.357 2.157 2.157 0 0 0-.181.394l-.332.717c-.049.113-.096.226-.147.34-.049.115-.096.216-.145.307-.05.114-.087.211-.108.29-.022.082-.053.141-.073.187a1.117 1.117 0 0 1-.074.173 1.25 1.25 0 0 1 .11-.173.374.374 0 0 0 .11-.175c.012-.064.048-.157.096-.27zm1.143-3.205a12.033 12.033 0 0 0-.518 1.192c-.072.161-.135.309-.183.442a2.64 2.64 0 0 1 .221-.442c.07-.135.153-.3.24-.492.086-.194.189-.416.312-.667.124-.25.251-.512.387-.785.135-.274.276-.568.424-.887.145-.295.292-.601.442-.92.147-.32.293-.637.441-.955.147-.318.294-.637.445-.955.145-.318.284-.635.407-.953.143-.32.276-.613.385-.886.11-.274.227-.535.352-.785l.441-1.228a.95.95 0 0 1 .075-.172c.021-.045.047-.09.072-.136a.3.3 0 0 0 .037-.135c-.05.135-.11.284-.184.444a12.464 12.464 0 0 1-.518 1.193c-.12.25-.248.512-.367.785-.125.273-.256.559-.407.852-.124.32-.255.636-.404.955-.146.32-.293.636-.442.954a87.257 87.257 0 0 0-.905 1.908c-.281.615-.534 1.174-.753 1.673zm.036 1.704c.072-.159.152-.325.24-.493.085-.171.177-.347.276-.528.1-.18.198-.368.295-.561.097-.194.196-.391.292-.598.097-.205.19-.406.276-.598.087-.192.167-.378.242-.561.096-.178.175-.366.24-.545.059-.18.128-.354.203-.51.049-.159.096-.302.147-.426.049-.125.085-.234.108-.325a.278.278 0 0 0 .038-.119c0-.034.013-.062.035-.085 0-.023.015-.047.038-.068 0 .021-.015.045-.038.068a.25.25 0 0 0-.057.085.753.753 0 0 1-.058.12c-.05.09-.103.192-.166.306-.058.114-.132.239-.204.373-.074.161-.155.327-.24.497-.09.171-.177.346-.278.526-.096.179-.19.368-.279.562-.085.194-.174.392-.276.597-.096.207-.186.407-.276.613-.088.207-.174.4-.276.58-.099.18-.177.36-.24.527-.06.173-.132.333-.206.49-.072.163-.13.298-.166.41a3.4 3.4 0 0 1-.132.339.99.99 0 0 1-.11.207c-.02.023-.036.045-.036.067.051-.094.11-.18.182-.274.052-.092.104-.187.169-.29.078-.095.16-.226.257-.386zm7.548-6c.196-.182.361-.36.493-.527.136-.173.265-.314.389-.427.123-.136.234-.261.329-.375l-.368.34c-.124.115-.255.25-.406.409-.146.16-.32.329-.516.51-.196.205-.402.415-.608.633-.21.215-.436.448-.677.7-.248.25-.49.5-.739.748-.248.252-.489.5-.735.752-.518.546-.993 1.056-1.437 1.533-.248.25-.467.493-.663.732-.199.24-.395.45-.59.632a7.114 7.114 0 0 0-.498.561 3.56 3.56 0 0 1-.387.427l-.11.154a.636.636 0 0 1-.11.12l-.11.101c.096-.112.212-.24.33-.375.123-.113.256-.252.405-.407.148-.159.32-.33.52-.512.392-.387.829-.833 1.307-1.332.479-.5.96-1.013 1.452-1.532.487-.522.975-1.034 1.451-1.531.485-.504.91-.946 1.278-1.335zm.882 4.637c.147-.293.253-.533.329-.716.053-.094.096-.18.146-.275a.694.694 0 0 1-.146.275 4.616 4.616 0 0 1-.182.305 7.02 7.02 0 0 0-.22.375 7.781 7.781 0 0 0-.553.987 3.497 3.497 0 0 0-.314.562 3.85 3.85 0 0 1-.313.561 8.83 8.83 0 0 0-.33.596c-.097.194-.197.38-.292.562-.098.181-.19.36-.278.527-.086.173-.166.334-.24.494-.145.322-.255.558-.33.716-.05.092-.087.183-.11.273l.148-.273c.073-.16.196-.385.367-.68.175-.292.365-.633.57-1.006.213-.375.41-.755.606-1.142a3.21 3.21 0 0 0 .314-.579c.089-.205.19-.398.316-.58l.274-.51c.083-.152.163-.313.238-.472zm4.75-4.944a.824.824 0 0 0-.093.239.618.618 0 0 1-.058.172.69.69 0 0 0-.036.171.329.329 0 0 0 .074-.137c.024-.044.05-.1.075-.17.021-.068.057-.148.108-.239.075-.181.158-.374.258-.58.096-.206.17-.42.22-.647a2.34 2.34 0 0 0 .11-.717.553.553 0 0 1-.038-.188.366.366 0 0 0-.037-.154c-.053-.135-.087-.227-.11-.272-.073-.181-.145-.307-.22-.375-.025-.02-.036-.056-.036-.1 0-.023-.015-.035-.036-.035v.034c0 .047.011.08.036.1.05.047.08.103.093.172.013.071.044.15.093.24a.513.513 0 0 1 .074.272c.022.07.037.172.037.308a3.196 3.196 0 0 1-.077.681c-.05.114-.088.221-.108.325-.025.102-.062.211-.11.325a1.73 1.73 0 0 0-.111.306c-.023.092-.06.179-.108.269zm2.541.069c.147-.182.3-.354.461-.513.16-.158.312-.318.46-.478.146-.181.288-.341.422-.477.136-.135.263-.274.386-.409.124-.114.227-.226.315-.34.085-.115.167-.206.24-.275a.469.469 0 0 0 .092-.1.31.31 0 0 1 .058-.07l.07-.067-.219.206c-.07.067-.165.158-.276.272a8.78 8.78 0 0 1-.35.341c-.126.114-.258.238-.403.374a9.479 9.479 0 0 0-.446.443c-.146.183-.299.348-.459.495-.16.148-.314.312-.46.493-.175.183-.33.354-.48.512-.148.16-.307.32-.484.478-.124.181-.25.341-.387.479-.134.135-.263.272-.386.408a8.305 8.305 0 0 0-.314.36c-.088.099-.166.184-.24.253a1.762 1.762 0 0 0-.221.24l.221-.206c.074-.069.165-.154.276-.255.11-.1.227-.22.35-.357.124-.114.252-.24.387-.375.136-.136.278-.295.425-.478.146-.16.299-.319.459-.479.167-.158.332-.317.503-.475zm-1.583 9.342a.522.522 0 0 0 .095-.204.55.55 0 0 1 .057-.174.324.324 0 0 1 .075-.136c-.026 0-.037.013-.037.032 0 .02-.01.042-.02.053-.015.015-.019.027-.019.053-.054.046-.126.16-.22.34l-.22.511c-.051.117-.088.223-.109.327-.021.1-.052.212-.072.326-.024.115-.047.223-.058.327-.014.1-.02.213-.02.326 0 .206.037.387.108.545.024.093.052.168.075.223.022.056.05.107.072.153l.11.101c-.024 0-.036-.014-.036-.034 0-.022-.008-.035-.019-.035-.014 0-.02-.021-.02-.066a2.25 2.25 0 0 1-.11-.342 1.731 1.731 0 0 1-.058-.56c.01-.195.042-.406.094-.633.022-.112.05-.213.074-.304.02-.093.048-.193.073-.309a3.49 3.49 0 0 0 .185-.52zm1.73-3.342c.097-.205.204-.41.314-.613.109-.205.225-.42.35-.648a5.99 5.99 0 0 0 .33-.631c.097-.216.212-.426.331-.634.095-.18.196-.366.292-.545.096-.182.181-.368.253-.548.075-.16.138-.3.206-.425.057-.127.116-.247.167-.361a5.07 5.07 0 0 1 .147-.307.713.713 0 0 1-.147.307 2.391 2.391 0 0 1-.183.341c-.072.114-.16.252-.255.407l-.59 1.09c-.124.21-.24.409-.35.616-.111.208-.228.42-.351.647a5.582 5.582 0 0 0-.33.63 4.67 4.67 0 0 1-.329.6c-.196.408-.38.786-.557 1.125-.096.18-.172.332-.215.461-.055.126-.098.232-.149.325l-.145.276a.735.735 0 0 1 .145-.276c.051-.093.11-.2.183-.325.075-.129.162-.268.254-.426.098-.182.199-.367.294-.547a7.11 7.11 0 0 1 .335-.539zm2.064-8.013c.147-.159.287-.319.424-.479.135-.158.26-.293.385-.408a.655.655 0 0 0 .13-.153.8.8 0 0 1 .13-.154l.11-.1-.11.1a.71.71 0 0 1-.165.119c-.06.034-.118.074-.17.119a16.4 16.4 0 0 0-.403.393 7.725 7.725 0 0 0-.443.494c-.145.159-.29.319-.423.479-.135.16-.262.294-.388.408-.145.18-.234.293-.254.34-.049.046-.074.08-.074.102l.405-.376c.124-.114.258-.245.405-.392.147-.144.292-.31.44-.492z"/>
    <path d="M112.898 19.492c.292.136.554.352.773.647.217.292.329.634.329 1.02 0 .228-.147.636-.445 1.212-.29.578-.706 1.235-1.232 1.961a23.342 23.342 0 0 1-1.899 2.267 18.526 18.526 0 0 1-2.428 2.164 13.277 13.277 0 0 1-2.816 1.621 7.802 7.802 0 0 1-3.073.633c-.716 0-1.44-.215-2.176-.648a8.312 8.312 0 0 1-2.003-1.654 8.838 8.838 0 0 1-1.474-2.265c-.38-.84-.57-1.67-.57-2.492 0-.773.141-1.607.423-2.504a14.37 14.37 0 0 1 1.16-2.659 19.913 19.913 0 0 1 1.69-2.541 15.027 15.027 0 0 1 2.028-2.148 11.368 11.368 0 0 1 2.15-1.484c.724-.375 1.43-.561 2.118-.561.884 0 1.59.186 2.116.561.526.375.927.796 1.198 1.26.268.467.423.888.46 1.262.035.375.006.561-.094.561a.534.534 0 0 1-.22-.034c.02.092.035.25.035.479 0 .705-.176 1.45-.532 2.23a8.057 8.057 0 0 1-3.517 3.754 5.23 5.23 0 0 1-2.502.631c-.64 0-1.181-.102-1.64-.31-.453-.21-.84-.452-1.159-.73-.54 1.256-.81 2.42-.81 3.489 0 .387.022.78.073 1.18.05.4.135.754.256 1.075.124.32.301.588.533.801.233.217.532.326.903.326 1.08 0 2.098-.2 3.054-.597a11.6 11.6 0 0 0 2.631-1.516 14.5 14.5 0 0 0 2.137-2.012 25.478 25.478 0 0 0 1.637-2.099c.466-.67.832-1.247 1.104-1.737.27-.488.453-.813.557-.972.218-.341.562-.421 1.027-.24l.198.069zm-14.616-.957c.074-.093.14-.18.203-.272.062-.093.13-.182.204-.273.053-.092.11-.175.183-.254.074-.08.135-.167.183-.257l.331-.407c.122-.136.233-.255.33-.36.096-.102.172-.198.215-.29a.46.46 0 0 0 .097-.1c.014-.023.03-.047.057-.07l.075-.066-.075.067a.471.471 0 0 0-.057.068.46.46 0 0 1-.097.102c-.069.068-.16.153-.252.255-.097.102-.213.211-.33.325-.05.068-.11.136-.183.206a.902.902 0 0 0-.183.24c-.072.066-.141.14-.203.219-.06.08-.13.165-.204.255-.074.09-.14.182-.203.273a3.543 3.543 0 0 1-.206.272 4.61 4.61 0 0 1-.368.58c-.05.114-.096.216-.146.306-.05.094-.097.195-.145.306-.052.114-.096.214-.146.309-.05.092-.097.192-.148.306a1.26 1.26 0 0 0-.109.272.95.95 0 0 1-.11.273c-.05.228-.097.408-.144.549-.052.18-.089.333-.111.458a2.096 2.096 0 0 0-.036.36.713.713 0 0 0 0 .307v-.102c0-.067.014-.136.036-.205a.387.387 0 0 0 .038-.171c0-.071.012-.13.035-.175.022-.095.06-.252.11-.48a.477.477 0 0 0 .093-.22c.016-.08.045-.175.096-.29a.938.938 0 0 0 .108-.271c.025-.093.06-.18.111-.274a4.37 4.37 0 0 1 .146-.307c.05-.093.097-.192.147-.306.049-.092.1-.18.167-.273.058-.093.116-.192.166-.306.052-.115.103-.215.17-.309a7.38 7.38 0 0 0 .155-.27zm.921-1.807a1.022 1.022 0 0 0-.11.172l-.075.136a.451.451 0 0 1 .093-.12c.038-.034.08-.085.133-.153.124-.114.256-.255.405-.427.147-.17.322-.346.52-.528.096-.113.196-.214.29-.306.096-.091.213-.192.329-.306.125-.114.249-.221.368-.325.123-.101.245-.211.368-.325.122-.115.255-.221.403-.326.149-.103.292-.21.441-.324.149-.113.301-.21.46-.29a5.49 5.49 0 0 0 .46-.255c.343-.18.688-.318 1.03-.408.294-.114.64-.193 1.03-.239h.496c.16 0 .327.022.496.068.053 0 .089.005.11.018a.241.241 0 0 0 .11.017.34.34 0 0 0 .108.035c.023 0 .06.013.11.034.053.022.09.034.11.034.022 0 .06.011.11.034.049.046.11.069.183.069.22.092.443.214.666.374a.978.978 0 0 1 .253.17c.075.069.147.126.222.172.049.047.093.093.129.136a.33.33 0 0 0 .13.1c.05.048.088.07.111.07a.357.357 0 0 1-.074-.102 2.772 2.772 0 0 1-.257-.272 1.622 1.622 0 0 0-.202-.153 1.101 1.101 0 0 1-.242-.222 1.088 1.088 0 0 1-.33-.188 2.304 2.304 0 0 0-.328-.22.532.532 0 0 1-.22-.069.896.896 0 0 0-.18-.101 1.48 1.48 0 0 1-.256-.067.385.385 0 0 0-.111-.035.299.299 0 0 1-.11-.034c-.368-.068-.724-.091-1.067-.068-.175.023-.35.046-.532.068a2.836 2.836 0 0 0-.57.136 5.082 5.082 0 0 0-1.028.408 5.755 5.755 0 0 0-.52.272l-.483.307c-.14.114-.287.228-.419.34-.135.115-.28.23-.422.342-.27.226-.51.454-.717.68-.21.228-.41.444-.606.647-.196.207-.356.4-.481.581-.125.183-.237.33-.334.443zm1.655 3.991c1.008 0 1.855-.203 2.539-.611a5.641 5.641 0 0 0 1.695-1.51 7.303 7.303 0 0 0 1.026-1.915c.25-.678.446-1.288.589-1.83-.07 0-.142-.006-.216-.018a1.454 1.454 0 0 0-.22-.018c-.466 0-.976.158-1.528.476-.557.316-1.104.745-1.656 1.287a15.37 15.37 0 0 0-1.603 1.864c-.52.701-.973 1.422-1.365 2.171.177.07.42.104.74.104zm4.972 7.365c.123-.068.232-.135.331-.206.097-.068.18-.124.252-.171.097-.068.175-.127.221-.175-.053.049-.127.1-.22.175-.073.047-.17.096-.277.152l-.352.189a4.38 4.38 0 0 0-.423.185c-.16.079-.329.14-.495.185-.097.047-.19.082-.276.1a1.93 1.93 0 0 0-.278.1c-.097.048-.19.08-.28.102-.085.02-.186.045-.312.067a.952.952 0 0 1-.276.087c-.087.011-.175.04-.278.085-.096.022-.196.04-.291.055-.097.011-.2.026-.292.05-.247.05-.417.081-.516.103-.1 0-.185.005-.26.016a.947.947 0 0 1-.217.02c-.096.02-.234.034-.405.034-.097.02-.213.034-.33.034a.418.418 0 0 0-.13.017.24.24 0 0 1-.097.02h-.07.62c.174 0 .307-.015.406-.034.198 0 .356-.015.483-.034.122 0 .303-.02.552-.066l.276-.055c.087-.01.19-.023.312-.053.098-.02.19-.038.28-.049.087-.015.189-.04.314-.088a.948.948 0 0 1 .276-.087.987.987 0 0 0 .278-.089l.554-.203c.172-.096.335-.175.497-.244.16-.055.3-.133.423-.222zm.37-10.878c-.024.023-.039.046-.039.069a.124.124 0 0 0-.036.085.252.252 0 0 1-.038.12c-.05.092-.101.193-.165.306-.062.114-.142.25-.24.41a3.246 3.246 0 0 1-.294.408 9.96 9.96 0 0 1-.368.477 4.943 4.943 0 0 0-.218.221c-.073.08-.147.155-.221.22a1.458 1.458 0 0 0-.253.222.836.836 0 0 1-.258.182l-.253.21a.343.343 0 0 1-.149.085.347.347 0 0 0-.147.087 3.151 3.151 0 0 1-.588.274c-.096.045-.198.08-.293.1-.096.02-.197.058-.294.102a1.853 1.853 0 0 1-.553.097l-.442.106h-.37a.89.89 0 0 1-.255.034h-.074.698c.072 0 .147-.006.221-.02.072-.012.158-.019.253-.019.074-.022.16-.042.256-.055.097-.014.196-.028.291-.056.097-.046.196-.08.293-.1.096-.02.196-.056.295-.098.122-.047.224-.096.312-.136.086-.045.189-.092.313-.135a.335.335 0 0 1 .146-.086.333.333 0 0 0 .146-.087l.257-.207a.692.692 0 0 0 .29-.186c.073-.08.163-.155.258-.22.074-.093.146-.173.218-.24.075-.067.147-.147.219-.241a.954.954 0 0 1 .183-.237.876.876 0 0 0 .184-.24c.048-.093.092-.174.13-.24.036-.068.08-.136.132-.206.096-.158.167-.293.203-.408.037-.113.08-.213.13-.307l.12-.291z"/>
  </g>
</svg>
