<svg xmlns="http://www.w3.org/2000/svg" width="110" height="35" viewBox="0 0 110 35">
  <g fill="#111" fill-rule="nonzero">
    <path d="M17.026 26.997v-.568c.44 0 .787-.04 1.048-.117.26-.081.46-.22.603-.44.14-.217.235-.514.28-.889.047-.382.07-.87.07-1.467V10.169l-5.425 16.828h-.33L7.861 10.169v13.344c0 .613.022 1.109.071 1.49.044.376.135.678.273.889a.982.982 0 0 0 .596.431c.258.072.611.11 1.047.11V27H5v-.567c.44 0 .784-.04 1.04-.118.256-.08.454-.22.59-.439.136-.215.226-.515.267-.888.042-.385.062-.87.062-1.469V10.441c0-.535-.03-.989-.091-1.359-.058-.372-.162-.672-.306-.9a1.26 1.26 0 0 0-.597-.498c-.252-.105-.573-.158-.966-.158V7h3.947l5.08 15.632 5-15.632H23v.526c-.44 0-.79.04-1.055.117a1.037 1.037 0 0 0-.604.439c-.136.215-.226.512-.266.888-.041.38-.062.869-.062 1.47v13.068c0 .613.02 1.107.068 1.49.044.376.135.678.274.889a.977.977 0 0 0 .595.43c.259.073.61.11 1.05.11v.568h-5.974v.002zM36.421 28v-.583c.154 0 .319-.018.483-.052.166-.032.318-.095.455-.189.14-.089.253-.224.347-.394.09-.164.136-.39.136-.672 0-.264-.053-.637-.163-1.121a42.472 42.472 0 0 0-.788-2.92c-.14-.44-.234-.754-.29-.947h-5.473c-.034.107-.09.285-.173.532-.077.25-.166.534-.267.846a34.628 34.628 0 0 0-.587 2.021c-.086.332-.158.639-.217.923a3.771 3.771 0 0 0-.083.665c0 .265.058.486.182.656.119.162.264.296.44.391.176.094.356.158.54.19.185.032.346.054.482.07V28H27v-.583c.329-.017.616-.124.856-.343.237-.215.45-.491.626-.825.183-.334.336-.707.463-1.118a58.4 58.4 0 0 0 .372-1.217L34.307 7h.357l4.904 17.039c.141.465.27.902.396 1.294.124.395.275.741.45 1.046a2.4 2.4 0 0 0 .633.727c.25.18.565.285.953.31V28h-5.579zm-2.514-16.354l-2.46 8.366h4.863l-2.403-8.366zM47 27v-.568c.45 0 .805-.044 1.068-.127s.466-.237.602-.452c.14-.214.223-.519.26-.897.037-.386.054-.88.054-1.483V10.521c0-.614-.017-1.112-.054-1.497-.037-.386-.12-.688-.26-.909a1.049 1.049 0 0 0-.602-.46c-.265-.084-.62-.129-1.068-.129V7h6v.526c-.44 0-.789.045-1.055.128a1.086 1.086 0 0 0-.61.461c-.142.221-.236.523-.281.909-.049.385-.068.885-.068 1.497v12.951c0 .606.02 1.095.059 1.482.043.385.131.688.268.898.139.216.34.365.604.452.263.084.622.128 1.083.128v.567h-6V27zM67 22.358c0 .875-.117 1.665-.357 2.357-.241.69-.556 1.278-.951 1.767a4.148 4.148 0 0 1-1.361 1.117 3.454 3.454 0 0 1-1.59.395c-.368 0-.73-.063-1.09-.185a11.111 11.111 0 0 1-1.029-.4c-.322-.145-.617-.284-.883-.406-.265-.12-.48-.185-.651-.185a.397.397 0 0 0-.274.11.738.738 0 0 0-.184.285c-.05.118-.087.245-.11.387-.02.138-.043.268-.06.4h-.358v-6.93h.357c.07.857.21 1.632.411 2.339.204.708.47 1.31.808 1.814.34.504.743.895 1.216 1.177.47.283 1.014.42 1.613.42.329 0 .656-.067.977-.204.322-.14.61-.348.86-.62.25-.28.458-.622.62-1.03.157-.415.237-.891.237-1.443a3.85 3.85 0 0 0-.309-1.562 5.507 5.507 0 0 0-.819-1.295 9.793 9.793 0 0 0-1.153-1.145c-.438-.352-.876-.717-1.317-1.085-.449-.369-.891-.755-1.323-1.161a7.85 7.85 0 0 1-1.153-1.346 6.838 6.838 0 0 1-.82-1.63C58.1 13.703 58 13.026 58 12.267c0-.824.107-1.565.324-2.22.213-.655.503-1.208.866-1.66a3.783 3.783 0 0 1 1.25-1.03c.479-.24.976-.357 1.497-.357.312 0 .62.058.925.178.309.118.6.246.876.382.278.139.536.266.763.385.23.118.42.18.571.18.107 0 .195-.041.266-.119.07-.079.134-.175.183-.286.053-.113.095-.231.126-.364.03-.131.056-.249.076-.354h.38v6.913h-.38a11.561 11.561 0 0 0-.343-2.23 6.946 6.946 0 0 0-.752-1.827 3.998 3.998 0 0 0-1.139-1.235 2.596 2.596 0 0 0-1.524-.462c-.307 0-.595.073-.877.218a2.54 2.54 0 0 0-.762.616c-.225.27-.406.59-.542.963-.141.372-.211.795-.211 1.265 0 .552.106 1.048.317 1.493.21.446.495.859.844 1.238.348.38.748.741 1.187 1.088.444.35.896.703 1.361 1.062.467.359.92.74 1.363 1.148a8.48 8.48 0 0 1 1.189 1.354c.346.497.628 1.054.842 1.66.218.608.324 1.304.324 2.092zM87 17.372c0 1.431-.168 2.784-.505 4.066-.333 1.282-.806 2.412-1.413 3.389-.616.974-1.349 1.744-2.208 2.317-.87.57-1.826.856-2.888.856a5.16 5.16 0 0 1-2.884-.846c-.862-.558-1.594-1.326-2.205-2.286-.61-.96-1.075-2.086-1.403-3.37A16.445 16.445 0 0 1 73 17.412c0-1.457.178-2.812.53-4.078.35-1.262.836-2.362 1.474-3.299.632-.937 1.383-1.677 2.267-2.221A5.353 5.353 0 0 1 80.159 7c1.035 0 1.969.282 2.808.835.84.556 1.558 1.311 2.158 2.257.601.95 1.065 2.055 1.393 3.31.32 1.259.482 2.584.482 3.97zm-2.407.197c0-.732-.024-1.48-.073-2.239a20.49 20.49 0 0 0-.274-2.203 12.827 12.827 0 0 0-.53-1.982 6.127 6.127 0 0 0-.852-1.61 3.933 3.933 0 0 0-1.24-1.093c-.48-.268-1.046-.404-1.696-.404-.596 0-1.121.136-1.57.404-.456.27-.844.63-1.18 1.094a6.301 6.301 0 0 0-.838 1.61 12.46 12.46 0 0 0-.535 1.952c-.138.689-.23 1.397-.289 2.121a26.615 26.615 0 0 0 0 4.216c.056.732.154 1.453.291 2.159.143.711.325 1.385.549 2.028.221.64.502 1.202.836 1.685a4.09 4.09 0 0 0 1.189 1.162c.457.286.978.43 1.578.43.623 0 1.173-.13 1.642-.392.464-.26.879-.622 1.223-1.068.342-.453.63-.985.857-1.59a13.01 13.01 0 0 0 .549-1.949c.132-.685.229-1.397.288-2.138.05-.742.075-1.471.075-2.193zM106.998 7.543c-.441 0-.795.041-1.062.121-.268.08-.473.232-.618.454-.14.223-.234.53-.275.919-.041.392-.061.898-.061 1.52V28h-.36l-9.337-16.654v12.726c0 .645.017 1.162.061 1.56.044.388.133.693.27.908.14.216.343.362.606.434.268.071.625.115 1.065.115v.586h-4.914v-.586c.44 0 .793-.044 1.058-.125.259-.08.458-.23.597-.452.145-.224.23-.531.28-.919.05-.394.073-.896.073-1.519V9.688a33.487 33.487 0 0 0-.49-.92 3.957 3.957 0 0 0-.487-.67 1.713 1.713 0 0 0-.59-.41c-.219-.096-.49-.145-.814-.145V7h3.454l8.63 15.495V10.558c0-.623-.018-1.128-.067-1.52-.049-.39-.14-.698-.284-.919a1.068 1.068 0 0 0-.61-.453c-.261-.082-.614-.122-1.057-.122v-.543H107l-.002.542z"/>
  </g>
</svg>
