<svg xmlns="http://www.w3.org/2000/svg" width="160" height="35" viewBox="0 0 160 35">
  <path d="M18.2 15.82c.66 0 1.225-.13 1.695-.39s.705-.77.705-1.53-.235-1.27-.705-1.53-1.035-.39-1.695-.39h-6.39v3.84h6.39zM7.28 25v-.54c.74 0 1.11-.18 1.11-.54V10.3c0-.36-.37-.54-1.11-.54v-.54h10.56c1.92 0 3.43.355 4.53 1.065s1.65 1.915 1.65 3.615c0 1.7-.55 2.905-1.65 3.615-1.1.71-2.61 1.065-4.53 1.065h-6.03v5.34c0 .36.32.54.96.54V25H7.28zm28.617-5.52l-2.43-5.04-2.13 5.04h4.56zm-10.02 4.98a.912.912 0 0 0 .585-.345c.15-.19.265-.365.345-.525l4.47-9.75c.12-.28.215-.505.285-.675.07-.17.105-.335.105-.495 0-.12-.025-.195-.075-.225a4.144 4.144 0 0 1-.165-.105v-.54h4.53v.54a.692.692 0 0 1-.195.09c-.07.02-.105.1-.105.24 0 .12.045.265.135.435.09.17.185.365.285.585l4.86 10.2c.1.18.21.31.33.39.12.08.25.14.39.18V25h-4.26v-.45c.1 0 .205-.03.315-.09.11-.06.165-.17.165-.33a.88.88 0 0 0-.06-.33c-.04-.1-.09-.23-.15-.39l-.81-1.71h-6.42l-.84 1.62c-.08.16-.145.305-.195.435a.979.979 0 0 0-.075.345c0 .16.05.26.15.3.1.04.24.06.42.06V25h-4.02v-.54zm19.076 0c.36 0 .54-.15.54-.45V12.79c0-.3-.18-.45-.54-.45v-.54h4.41v.54c-.14.02-.21.07-.21.15 0 .1.22.37.66.81l7.2 7.62v-8.13c0-.3-.2-.45-.6-.45v-.54h3.66v.54c-.36 0-.54.15-.54.45v11.22c0 .3.18.45.54.45V25h-3.9v-.54c.14 0 .21-.05.21-.15 0-.08-.095-.22-.285-.42-.19-.2-.405-.43-.645-.69l-7.44-7.92v8.73c0 .3.21.45.63.45V25h-3.69v-.54zm23.607 0c.1 0 .2-.035.3-.105.1-.07.15-.185.15-.345v-9.99h-3.9c-.16 0-.31.04-.45.12-.14.08-.21.21-.21.39h-.54v-3.45h.54c0 .28.07.47.21.57.14.1.29.15.45.15h10.68c.16 0 .31-.05.45-.15.14-.1.21-.29.21-.57h.54v3.45h-.54c0-.18-.07-.31-.21-.39a.892.892 0 0 0-.45-.12h-3.9v9.99c0 .3.18.45.54.45V25h-3.87v-.54zm15.777-.45c0 .16.045.275.135.345.09.07.195.105.315.105V25h-3.78v-.54c.12 0 .225-.035.315-.105.09-.07.135-.185.135-.345V12.79c0-.16-.045-.275-.135-.345a.498.498 0 0 0-.315-.105v-.54h3.78v.54a.498.498 0 0 0-.315.105c-.09.07-.135.185-.135.345v4.23h8.04v-4.23c0-.16-.045-.275-.135-.345a.498.498 0 0 0-.315-.105v-.54h3.78v.54a.498.498 0 0 0-.315.105c-.09.07-.135.185-.135.345v11.22c0 .16.045.275.135.345.09.07.195.105.315.105V25h-3.78v-.54c.12 0 .225-.035.315-.105.09-.07.135-.185.135-.345v-4.53h-8.04v4.53zm28.496-9.42c0-.38-.31-.57-.93-.57h-7.32v3h4.62c.34 0 .59-.025.75-.075.16-.05.24-.185.24-.405h.54v3.18h-.6c.06-.22-.02-.355-.24-.405-.22-.05-.53-.075-.93-.075h-4.38v3.54h7.68c.24 0 .44-.055.6-.165.16-.11.24-.255.24-.435h.54v3.15h-.54c0-.18-.08-.28-.24-.3-.16-.02-.36-.03-.6-.03h-11.01v-.54c.1 0 .2-.035.3-.105.1-.07.15-.185.15-.345V12.79c0-.16-.05-.275-.15-.345a.52.52 0 0 0-.3-.105v-.54h10.65c.62 0 .93-.18.93-.54h.54v3.33h-.54zm12.207-.75c-.64 0-1.265.105-1.875.315a5.31 5.31 0 0 0-1.635.9c-.48.39-.865.865-1.155 1.425-.29.56-.435 1.2-.435 1.92s.145 1.36.435 1.92c.29.56.675 1.035 1.155 1.425.48.39 1.025.69 1.635.9a5.722 5.722 0 0 0 3.75 0 5.31 5.31 0 0 0 1.635-.9c.48-.39.865-.865 1.155-1.425.29-.56.435-1.2.435-1.92s-.145-1.36-.435-1.92a4.452 4.452 0 0 0-1.155-1.425 5.31 5.31 0 0 0-1.635-.9 5.722 5.722 0 0 0-1.875-.315zm0-2.22c1.1 0 2.135.14 3.105.42.97.28 1.815.7 2.535 1.26a6.01 6.01 0 0 1 1.71 2.115c.42.85.63 1.845.63 2.985s-.21 2.135-.63 2.985a6.01 6.01 0 0 1-1.71 2.115c-.72.56-1.565.965-2.535 1.215-.97.25-2.005.375-3.105.375s-2.135-.125-3.105-.375c-.97-.25-1.815-.655-2.535-1.215a6.01 6.01 0 0 1-1.71-2.115c-.42-.85-.63-1.845-.63-2.985s.21-2.135.63-2.985a6.01 6.01 0 0 1 1.71-2.115c.72-.56 1.565-.98 2.535-1.26.97-.28 2.005-.42 3.105-.42zm12.027 12.84c.36 0 .54-.15.54-.45V12.79c0-.3-.18-.45-.54-.45v-.54h4.41v.54c-.14.02-.21.07-.21.15 0 .1.22.37.66.81l7.2 7.62v-8.13c0-.3-.2-.45-.6-.45v-.54h3.66v.54c-.36 0-.54.15-.54.45v11.22c0 .3.18.45.54.45V25h-3.9v-.54c.14 0 .21-.05.21-.15 0-.08-.095-.22-.285-.42-.19-.2-.405-.43-.645-.69l-7.44-7.92v8.73c0 .3.21.45.63.45V25h-3.69v-.54z" fill="#111" fill-rule="evenodd"/>
</svg>
