<svg xmlns="http://www.w3.org/2000/svg" width="125" height="40" viewBox="0 0 125 40">
  <path d="M27.678 8.846c0 .113-.085.181-.255.204-.17.023-.776.057-1.819.102-.612.023-.963.147-1.054.374-.09.136-.125.861-.102 2.176l.034 3.944c.023 2.63.034 6.063.034 10.302v5.78c0 .385-.08.578-.238.578-.25 0-1.898-1.876-4.947-5.627-3.049-3.751-6.398-8.041-10.047-12.869v2.516c0 .861.011 1.61.034 2.244V30.3c0 .476.147.77.442.884.476.181 1.031.272 1.666.272.748 0 1.167.057 1.258.17.023.023.034.068.034.136 0 .181-.17.272-.51.272-.204 0-.374-.011-.51-.034a108.88 108.88 0 0 0-2.55-.068c-.793 0-1.836.023-3.128.068-.635.023-.907.034-.816.034-.34 0-.51-.09-.51-.272 0-.159.499-.272 1.496-.34 1.156-.09 1.825-.272 2.006-.544.113-.181.17-.997.17-2.448V14.456c0-1.428-.023-2.29-.068-2.584-.136-.997-.533-1.723-1.19-2.176-.499-.34-1.428-.533-2.788-.578-.363-.023-.544-.125-.544-.306 0-.204.159-.306.476-.306.136 0 .623.023 1.462.068.408.023 1.02.034 1.836.034 1.677 0 3.037-.023 4.08-.068l11.934 15.334V10.41c0-.544-.09-.89-.272-1.037-.181-.147-.567-.232-1.156-.255l-1.462-.068c-.272-.023-.408-.102-.408-.238 0-.181.204-.272.612-.272h.748c.136 0 .363-.011.68-.034h.782c2.29 0 3.627.011 4.012.034.385.023.578.125.578.306zm9.074 3.876c0 2.108-.804 3.638-2.414 4.59-1.042.612-2.006.918-2.89.918-.158 0-.238-.057-.238-.17 0-.113.09-.193.272-.238 2.584-.612 3.876-1.938 3.876-3.978 0-1.247-.442-2.13-1.326-2.652 0 1.27-.555 1.904-1.666 1.904-.634 0-1.15-.204-1.547-.612-.396-.408-.595-.93-.595-1.564 0-.748.267-1.349.8-1.802.532-.453 1.24-.68 2.124-.68 1.11 0 1.99.385 2.635 1.156.646.77.97 1.813.97 3.128zm25.666 7.548c0 3.4-1.06 6.273-3.179 8.619-2.119 2.346-4.72 3.519-7.803 3.519-3.014 0-5.598-1.19-7.752-3.57-2.153-2.38-3.23-5.247-3.23-8.602 0-3.445 1.071-6.324 3.213-8.636 2.142-2.312 4.8-3.468 7.973-3.468 3.06 0 5.622 1.162 7.684 3.485 2.063 2.323 3.094 5.208 3.094 8.653zm-5.984.544c0-4.51-.532-7.843-1.598-9.996-.702-1.405-1.813-2.108-3.332-2.108-1.54 0-2.77.986-3.689 2.958-.918 1.972-1.377 4.613-1.377 7.922 0 4.805.816 8.398 2.448 10.778.68.997 1.666 1.496 2.958 1.496 1.496 0 2.55-.714 3.162-2.142.952-2.221 1.428-5.19 1.428-8.908zm20.907-1.428c0 .657-.193 1.196-.578 1.615-.386.42-.884.629-1.496.629-1.224 0-1.836-.567-1.836-1.7 0-.385.147-.77.442-1.156.068-.09.102-.17.102-.238 0-.204-.148-.306-.442-.306-.771 0-1.36.6-1.768 1.802-.227.68-.34 2.346-.34 4.998v2.482l.034 2.992c0 .612.306.94.918.986.362.023.793.034 1.292.034.249.023.374.102.374.238 0 .181-.102.272-.306.272h-.68c-.204-.023-1.19-.034-2.958-.034.09 0-.42.011-1.53.034l-1.666.034H65.61a7.95 7.95 0 0 1-.782.034c-.25 0-.374-.08-.374-.238 0-.159.158-.238.476-.238.929-.023 1.49-.119 1.683-.289.192-.17.289-.674.289-1.513l-.034-9.18c0-.77-.108-1.303-.323-1.598-.216-.295-.697-.476-1.445-.544-.59-.045-.924-.08-1.003-.102-.08-.023-.12-.102-.12-.238s.091-.204.273-.204c.204 0 .396.011.578.034h.68c1.745 0 3.626-.363 5.644-1.088.113.453.17.975.17 1.564v1.428c.43-1.11.9-1.893 1.41-2.346.51-.453 1.174-.68 1.99-.68.77 0 1.4.238 1.887.714.487.476.73 1.077.73 1.802zm15.194 8.466c0 .499-.295 1.156-.884 1.972-1.27 1.745-2.924 2.618-4.964 2.618-2.29 0-4.17-.725-5.644-2.176-1.473-1.45-2.21-3.31-2.21-5.576 0-2.221.714-4.074 2.142-5.559 1.428-1.485 3.207-2.227 5.338-2.227 1.45 0 2.686.317 3.706.952 1.133.703 1.87 1.711 2.21 3.026.09.408.159.895.204 1.462-.521.045-2.618.08-6.29.102-.567 0-1.28.023-2.142.068a25.614 25.614 0 0 0-.102 2.074c0 2.652.555 4.533 1.666 5.644.657.657 1.462.986 2.414.986.793 0 1.558-.272 2.295-.816a5.22 5.22 0 0 0 1.683-2.108c.181-.43.329-.646.442-.646.09 0 .136.068.136.204zm-4.284-5.916c.023-1.745-.102-2.958-.374-3.638-.272-.68-.748-1.02-1.428-1.02-1.383 0-2.176 1.553-2.38 4.658.476-.023 1.473-.034 2.992-.034.453 0 .85.011 1.19.034zm20.974 8.262c0 .181-.181.43-.544.748-.975.884-2.176 1.326-3.604 1.326-.93 0-1.604-.193-2.023-.578-.42-.385-.697-1.077-.833-2.074-1.02 1.859-2.414 2.788-4.182 2.788-.975 0-1.762-.306-2.363-.918-.6-.612-.9-1.405-.9-2.38 0-2.856 2.447-4.545 7.343-5.066v-.714c0-2.267-.08-3.66-.238-4.182l-.034-.17c-.317-1.133-1.122-1.7-2.414-1.7-.748 0-1.349.215-1.802.646-.453.43-.68.85-.68 1.258 0 .227.272.363.816.408.816.068 1.224.567 1.224 1.496 0 .499-.164.912-.493 1.241-.329.329-.754.493-1.275.493-.657 0-1.196-.198-1.615-.595-.42-.397-.629-.901-.629-1.513 0-.975.487-1.859 1.462-2.652.975-.793 2.255-1.19 3.842-1.19 2.357 0 4 .42 4.93 1.258.748.703 1.122 1.927 1.122 3.672v5.814c0 1.133.011 1.79.034 1.972.113.952.442 1.428.986 1.428.385 0 .861-.272 1.428-.816.113-.113.204-.17.272-.17.113 0 .17.057.17.17zm-7.106-4.046v-1.666c-2.199.43-3.298 1.677-3.298 3.74 0 1.587.544 2.38 1.632 2.38.612 0 1.043-.34 1.292-1.02.25-.68.374-1.825.374-3.434zm16.588 5.61c0 .181-.43.272-1.292.272-.204 0-.838-.023-1.904-.068a38.394 38.394 0 0 0-1.598-.034c-.498 0-1.428.023-2.788.068l-1.02.034c-.498.023-.748-.057-.748-.238s.261-.26.782-.238c.794.023 1.253-.057 1.377-.238.125-.181.187-.861.187-2.04V11.362c0-.77-.079-1.23-.238-1.377-.158-.147-.623-.221-1.394-.221-.566 0-.85-.08-.85-.238 0-.181.295-.283.884-.306 2.539-.09 4.613-.476 6.222-1.156-.022.68-.034 4.658-.034 11.934v8.466c0 1.541.04 2.442.12 2.703.079.26.356.38.832.357l1.02-.034c.295 0 .442.09.442.272z" fill="#111" fill-rule="evenodd"/>
</svg>
