<svg xmlns="http://www.w3.org/2000/svg" width="140" height="40" viewBox="0 0 140 40">
  <g fill="#111" fill-rule="nonzero">
    <path d="M9.814 17.12c.967-1.414 2.41-2.12 4.33-2.12 1.741 0 3.153.602 4.234 1.805C19.458 17.993 20 19.462 20 21.212s-.541 3.22-1.622 4.407c-1.08 1.205-2.532 1.805-4.355 1.805-1.822 0-3.226-.714-4.208-2.143V32H8V15.192h1.815l-.001 1.927zm4.088-.483c-1.306 0-2.338.45-3.096 1.348-.726.851-1.09 1.927-1.09 3.227 0 1.3.364 2.377 1.09 3.227.758.902 1.79 1.35 3.096 1.35 1.29 0 2.339-.448 3.145-1.35.76-.85 1.138-1.926 1.138-3.227 0-1.3-.379-2.376-1.138-3.227-.806-.899-1.854-1.348-3.145-1.348zM27.147 25.418c1.628 0 2.797-.652 3.508-1.954h1.984a5.644 5.644 0 0 1-1.997 2.56c-.912.65-2.085.976-3.52.976-1.823 0-3.307-.581-4.453-1.744C21.556 24.126 21 22.706 21 21c0-1.721.532-3.14 1.597-4.256C23.726 15.58 25.193 15 27 15c1.807 0 3.274.581 4.404 1.744C32.469 17.86 33 19.279 33 21v.699H22.863c.13 1.069.573 1.954 1.33 2.651.775.713 1.759 1.068 2.954 1.068zM27 16.58c-1.113 0-2.048.333-2.806 1-.71.635-1.145 1.465-1.307 2.489h8.227c-.163-1.024-.597-1.853-1.307-2.49-.758-.666-1.693-1-2.807-1zM40 15v1.772h-.205c-1.227 0-2.227.511-3 1.535-.727.976-1.09 2.142-1.09 3.497V27H34V15.189h1.705v2.905c.363-1.228 1.15-2.133 2.364-2.716.5-.252 1.105-.378 1.818-.378H40zM47.046 20.64L52 28h-2.11l-4.014-6.097-2.156 2.26V28H42V11h1.72v10.88l5.528-6.022h2.408zM55 11v2.3h-2V11h2zm-1.926 4.27h1.851V27h-1.851V15.27zM59.872 15.189v1.842a6.15 6.15 0 0 1 1.646-1.44c.648-.394 1.388-.591 2.22-.591.83 0 1.546.11 2.144.33a4.38 4.38 0 0 1 1.572.993c1.03.96 1.546 2.228 1.546 3.803V27h-1.87v-6.828c0-1.085-.325-1.952-.973-2.598-.649-.645-1.488-.968-2.52-.968-1.048 0-1.937.331-2.669.992-.732.678-1.097 1.544-1.097 2.599V27H58V15.189h1.872zM77.815 18.303c-.16-1.21-1.153-1.814-2.983-1.814-1.829 0-2.744.558-2.744 1.675 0 .465.195.817.582 1.058.388.24.875.439 1.46.593.587.154 1.226.299 1.914.43.689.131 1.327.318 1.914.558.585.24 1.072.57 1.46.988.388.418.582.992.582 1.72 0 1.13-.436 1.995-1.306 2.593-.871.597-2.052.896-3.54.896-1.583 0-2.841-.388-3.778-1.164-.855-.681-1.314-1.572-1.376-2.673h1.852c.11 1.067.729 1.79 1.853 2.162.412.125.82.187 1.224.187s.78-.022 1.128-.068a4.662 4.662 0 0 0 1.021-.259c.76-.294 1.14-.797 1.14-1.51 0-.482-.194-.849-.582-1.105-.387-.256-.873-.464-1.46-.628a24.433 24.433 0 0 0-1.913-.443 10.343 10.343 0 0 1-1.913-.546A4.082 4.082 0 0 1 70.89 20c-.387-.402-.582-.961-.582-1.674 0-1.055.392-1.872 1.176-2.454.786-.582 1.945-.872 3.482-.872 1.455 0 2.605.341 3.444 1.023.697.574 1.102 1.334 1.212 2.28h-1.806zM87.935 12.226c.464-.377 1.036-.675 1.714-.896.68-.22 1.455-.33 2.324-.33.87 0 1.612.094 2.225.282.613.19 1.133.442 1.566.755.78.567 1.268 1.306 1.468 2.218h-1.964c-.134-.377-.475-.746-1.02-1.109-.546-.362-1.218-.542-2.014-.542-.795 0-1.417.07-1.864.211-.447.142-.821.34-1.12.59-.562.473-.845 1.102-.845 1.889 0 .85.324 1.51.97 1.982.58.409 1.334.613 2.263.613h4.003v-1.038h1.741v1.038H99v1.581h-1.618v2.999c0 1.352-.496 2.437-1.49 3.257-1.014.85-2.387 1.274-4.127 1.274-1.574 0-2.925-.433-4.05-1.298C86.572 24.822 86 23.697 86 22.33c0-.85.265-1.604.796-2.266.528-.66 1.276-1.163 2.237-1.51-.613-.173-1.17-.566-1.666-1.18-.55-.692-.823-1.368-.823-2.029 0-.66.116-1.251.348-1.77.23-.521.578-.971 1.043-1.349zm3.48 7.244c-1.012 0-1.863.292-2.561.873-.663.536-.993 1.212-.993 2.03 0 .82.365 1.525 1.094 2.123.73.615 1.668.922 2.81.922 1.226 0 2.196-.292 2.908-.874.647-.503.97-1.146.97-1.936V19.47h-4.229zM110.522 25.418c.798 0 1.502-.209 2.116-.628a3.67 3.67 0 0 0 1.346-1.627H116c-.382 1.148-1.079 2.07-2.092 2.768-1.061.713-2.324 1.069-3.784 1.069-1.825 0-3.31-.581-4.456-1.744C104.556 24.126 104 22.706 104 21c0-1.706.556-3.124 1.668-4.256 1.145-1.163 2.631-1.744 4.456-1.744 1.46 0 2.722.357 3.784 1.07A5.334 5.334 0 0 1 116 18.836h-2.016a3.691 3.691 0 0 0-1.346-1.628c-.614-.42-1.318-.628-2.116-.628-.795 0-1.474.116-2.029.348a4.098 4.098 0 0 0-1.405.953c-.813.838-1.218 1.877-1.218 3.117s.405 2.28 1.218 3.117c.829.87 1.974 1.302 3.434 1.302zM123 15c1.809 0 3.275.581 4.405 1.744C128.469 17.86 129 19.279 129 21c0 1.722-.532 3.14-1.595 4.256C126.275 26.42 124.809 27 123 27c-1.808 0-3.274-.582-4.404-1.744C117.532 24.14 117 22.722 117 21c0-1.721.532-3.14 1.597-4.256 1.13-1.163 2.596-1.744 4.404-1.744zm0 10.42c1.308 0 2.338-.434 3.098-1.304.727-.821 1.089-1.86 1.089-3.118 0-1.256-.362-2.295-1.089-3.116-.76-.869-1.79-1.303-3.097-1.303s-2.34.434-3.097 1.303c-.727.821-1.09 1.86-1.09 3.116s.363 2.297 1.09 3.118c.758.87 1.79 1.303 3.097 1.303zM132 25v2h-2v-2z"/>
  </g>
</svg>
