<svg xmlns="http://www.w3.org/2000/svg" width="965" height="120" viewBox="0 0 965 120">
  <path d="M79.5 25.15H31.2c-.6 0-.9.3-.9.9V49c0 .6.3.9.9.9h31.35c1.7 0 2.55.85 2.55 2.55V65.5c0 1.7-.85 2.55-2.55 2.55H31.2c-.6 0-.9.3-.9.9v24c0 .6.3.9.9.9h48.3c1.7 0 2.55.85 2.55 2.55v13.05c0 1.7-.85 2.55-2.55 2.55H11.7c-1.7 0-2.55-.85-2.55-2.55V9.55C9.15 7.85 10 7 11.7 7h67.8c1.7 0 2.55.85 2.55 2.55V22.6c0 1.7-.85 2.55-2.55 2.55zm35.1 84.75L91.35 37.75c-.1-.2-.15-.5-.15-.9 0-.6.2-1.075.6-1.425.4-.35.95-.525 1.65-.525h17.7c1.4 0 2.35.75 2.85 2.25l12 45c.1.4.3.6.6.6s.5-.2.6-.6l12-45c.5-1.5 1.45-2.25 2.85-2.25l17.7.15c.9 0 1.55.275 1.95.825.4.55.45 1.225.15 2.025l-23.1 72c-.5 1.4-1.5 2.1-3 2.1h-18.3c-1.4 0-2.35-.7-2.85-2.1zm71.25-3.3c-6-4.4-10.1-10.4-12.3-18-1.4-4.7-2.1-9.8-2.1-15.3 0-6.1.75-11.4 2.25-15.9 2.3-7.4 6.425-13.2 12.375-17.4 5.95-4.2 13.175-6.3 21.675-6.3 8.2 0 15.225 2.1 21.075 6.3 5.85 4.2 9.925 9.95 12.225 17.25 1.5 4.6 2.25 9.85 2.25 15.75 0 5.2-.65 10.25-1.95 15.15-2.3 7.8-6.425 13.925-12.375 18.375-5.95 4.45-13.075 6.675-21.375 6.675-8.5 0-15.75-2.2-21.75-6.6zm30-14.55c2.3-2 3.95-4.75 4.95-8.25.8-2.7 1.2-6.2 1.2-10.5 0-4.2-.4-7.75-1.2-10.65-1-3.4-2.65-6.05-4.95-7.95-2.3-1.9-5.15-2.85-8.55-2.85-3.3 0-6.1.95-8.4 2.85-2.3 1.9-3.95 4.55-4.95 7.95-.8 2.9-1.2 6.45-1.2 10.65 0 4.1.4 7.6 1.2 10.5 1 3.5 2.675 6.25 5.025 8.25 2.35 2 5.225 3 8.625 3 3.2 0 5.95-1 8.25-3zm41.4 17.4V9.55c0-1.7.85-2.55 2.55-2.55h16.05c1.7 0 2.55.85 2.55 2.55v99.9c0 1.7-.85 2.55-2.55 2.55H259.8c-1.7 0-2.55-.85-2.55-2.55zm56.25.45l-23.25-72.15c-.1-.2-.15-.5-.15-.9 0-.6.2-1.075.6-1.425.4-.35.95-.525 1.65-.525h17.7c1.4 0 2.35.75 2.85 2.25l12 45c.1.4.3.6.6.6s.5-.2.6-.6l12-45c.5-1.5 1.45-2.25 2.85-2.25l17.7.15c.9 0 1.55.275 1.95.825.4.55.45 1.225.15 2.025l-23.1 72c-.5 1.4-1.5 2.1-3 2.1h-18.3c-1.4 0-2.35-.7-2.85-2.1zm111.15-21.45c.6-.7 1.25-1.05 1.95-1.05.6 0 1.15.25 1.65.75l8.55 8.25c.6.6.9 1.2.9 1.8 0 .7-.2 1.3-.6 1.8-3.3 4.1-7.525 7.325-12.675 9.675-5.15 2.35-10.775 3.525-16.875 3.525-9.2 0-16.825-2.35-22.875-7.05-6.05-4.7-10.125-11.15-12.225-19.35-1.2-4.4-1.8-9.05-1.8-13.95 0-5.8.55-10.7 1.65-14.7 2-7.4 6.025-13.35 12.075-17.85 6.05-4.5 13.225-6.75 21.525-6.75 9.8 0 17.575 2.9 23.325 8.7 5.75 5.8 9.475 13.95 11.175 24.45.4 3.3.7 6.95.9 10.95 0 1.7-.85 2.55-2.55 2.55H392.7c-.6 0-.9.3-.9.9.3 2.1.65 3.65 1.05 4.65 1 3.1 2.975 5.475 5.925 7.125 2.95 1.65 6.525 2.475 10.725 2.475 6.6-.3 11.65-2.6 15.15-6.9zm-27.075-34.275c-2.15 1.55-3.625 3.725-4.425 6.525-.5 1.9-.8 3.15-.9 3.75-.1.6.15.9.75.9h25.5c.5 0 .75-.2.75-.6 0-1.1-.2-2.25-.6-3.45-.9-2.9-2.45-5.2-4.65-6.9-2.2-1.7-5-2.55-8.4-2.55-3.2 0-5.875.775-8.025 2.325zm59.025 54.6c-2.6-2.55-3.9-5.625-3.9-9.225 0-3.5 1.4-6.525 4.2-9.075 2.8-2.55 5.95-3.825 9.45-3.825 3.7 0 6.95 1.275 9.75 3.825 2.8 2.55 4.2 5.575 4.2 9.075 0 3.6-1.35 6.675-4.05 9.225-2.7 2.55-6 3.825-9.9 3.825-3.9 0-7.15-1.275-9.75-3.825zm85.5-.15c-5.9-3.05-10.45-7.325-13.65-12.825-3.2-5.5-4.8-11.85-4.8-19.05V42.1c0-7.2 1.6-13.55 4.8-19.05 3.2-5.5 7.75-9.75 13.65-12.75s12.75-4.5 20.55-4.5c7.7 0 14.475 1.425 20.325 4.275 5.85 2.85 10.4 6.9 13.65 12.15S601.5 33.55 601.5 40.45c0 .9-.8 1.45-2.4 1.65l-16.05 1.05h-.6c-1.4 0-2.1-.25-2.1-.75v-.9c0-5.3-1.625-9.55-4.875-12.75-3.25-3.2-7.525-4.8-12.825-4.8-5.4 0-9.725 1.6-12.975 4.8-3.25 3.2-4.875 7.45-4.875 12.75v36.15c0 5.2 1.625 9.4 4.875 12.6 3.25 3.2 7.575 4.8 12.975 4.8 5.3 0 9.575-1.6 12.825-4.8 3.25-3.2 4.875-7.4 4.875-12.6 0-.5.225-.925.675-1.275.45-.35 1.075-.475 1.875-.375l16.05.75c1.7.2 2.55.45 2.55.75v.75c0 6.9-1.625 13-4.875 18.3-3.25 5.3-7.8 9.4-13.65 12.3-5.85 2.9-12.625 4.35-20.325 4.35-7.8 0-14.65-1.525-20.55-4.575zM661.95 35.65c1.2.6 1.65 1.65 1.35 3.15l-2.85 15.75c-.1.9-.375 1.45-.825 1.65-.45.2-1.175.2-2.175 0-1.6-.4-3.05-.6-4.35-.6-.7 0-1.85.1-3.45.3-3.6.3-6.65 1.625-9.15 3.975s-3.75 5.475-3.75 9.375v40.2c0 1.7-.85 2.55-2.55 2.55h-16.05c-1.7 0-2.55-.85-2.55-2.55v-72c0-1.7.85-2.55 2.55-2.55h16.05c1.7 0 2.55.85 2.55 2.55v4.65c0 .4.1.65.3.75.2.1.45 0 .75-.3 4-5.8 9.4-8.7 16.2-8.7 3.2 0 5.85.6 7.95 1.8zm63.45 52.8c.6-.7 1.25-1.05 1.95-1.05.6 0 1.15.25 1.65.75l8.55 8.25c.6.6.9 1.2.9 1.8 0 .7-.2 1.3-.6 1.8-3.3 4.1-7.525 7.325-12.675 9.675-5.15 2.35-10.775 3.525-16.875 3.525-9.2 0-16.825-2.35-22.875-7.05-6.05-4.7-10.125-11.15-12.225-19.35-1.2-4.4-1.8-9.05-1.8-13.95 0-5.8.55-10.7 1.65-14.7 2-7.4 6.025-13.35 12.075-17.85 6.05-4.5 13.225-6.75 21.525-6.75 9.8 0 17.575 2.9 23.325 8.7 5.75 5.8 9.475 13.95 11.175 24.45.4 3.3.7 6.95.9 10.95 0 1.7-.85 2.55-2.55 2.55h-46.05c-.6 0-.9.3-.9.9.3 2.1.65 3.65 1.05 4.65 1 3.1 2.975 5.475 5.925 7.125 2.95 1.65 6.525 2.475 10.725 2.475 6.6-.3 11.65-2.6 15.15-6.9zm-27.075-34.275c-2.15 1.55-3.625 3.725-4.425 6.525-.5 1.9-.8 3.15-.9 3.75-.1.6.15.9.75.9h25.5c.5 0 .75-.2.75-.6 0-1.1-.2-2.25-.6-3.45-.9-2.9-2.45-5.2-4.65-6.9-2.2-1.7-5-2.55-8.4-2.55-3.2 0-5.875.775-8.025 2.325zm105.075-17.1c5.1 2.25 9.075 5.325 11.925 9.225 2.85 3.9 4.275 8.25 4.275 13.05v50.1c0 1.7-.85 2.55-2.55 2.55H801c-1.7 0-2.55-.85-2.55-2.55v-3.6c0-.4-.1-.625-.3-.675-.2-.05-.45.075-.75.375-4.6 5.1-11.45 7.65-20.55 7.65-7.7 0-13.9-1.9-18.6-5.7-4.7-3.8-7.05-9.4-7.05-16.8 0-7.7 2.7-13.675 8.1-17.925 5.4-4.25 13.1-6.375 23.1-6.375h15.15c.6 0 .9-.3.9-.9v-3.15c0-3.3-1.025-5.875-3.075-7.725-2.05-1.85-5.025-2.775-8.925-2.775-3 0-5.475.5-7.425 1.5-1.95 1-3.275 2.4-3.975 4.2-.6 1.4-1.6 2.05-3 1.95l-16.65-2.1c-.8-.1-1.425-.325-1.875-.675-.45-.35-.625-.825-.525-1.425.5-4.1 2.225-7.8 5.175-11.1 2.95-3.3 6.85-5.875 11.7-7.725C774.725 34.625 780.1 33.7 786 33.7c6.5 0 12.3 1.125 17.4 3.375zM793.95 94c3-2.3 4.5-5.25 4.5-8.85V79.9c0-.6-.3-.9-.9-.9H786.9c-4.5 0-8.05.85-10.65 2.55-2.6 1.7-3.9 4.1-3.9 7.2 0 2.7.975 4.825 2.925 6.375 1.95 1.55 4.525 2.325 7.725 2.325 4.3 0 7.95-1.15 10.95-3.45zM876 51.85h-13.5c-.6 0-.9.3-.9.9V83.8c0 3.3.675 5.725 2.025 7.275 1.35 1.55 3.525 2.325 6.525 2.325h4.2c1.7 0 2.55.85 2.55 2.55v12.9c0 1.6-.85 2.5-2.55 2.7-3.8.2-6.55.3-8.25.3-8.3 0-14.5-1.4-18.6-4.2-4.1-2.8-6.2-8-6.3-15.6v-39.3c0-.6-.3-.9-.9-.9h-7.65c-1.7 0-2.55-.85-2.55-2.55V37.45c0-1.7.85-2.55 2.55-2.55h7.65c.6 0 .9-.3.9-.9V17.05c0-1.7.85-2.55 2.55-2.55h15.3c1.7 0 2.55.85 2.55 2.55V34c0 .6.3.9.9.9H876c1.7 0 2.55.85 2.55 2.55V49.3c0 1.7-.85 2.55-2.55 2.55zm67.65 36.6c.6-.7 1.25-1.05 1.95-1.05.6 0 1.15.25 1.65.75l8.55 8.25c.6.6.9 1.2.9 1.8 0 .7-.2 1.3-.6 1.8-3.3 4.1-7.525 7.325-12.675 9.675-5.15 2.35-10.775 3.525-16.875 3.525-9.2 0-16.825-2.35-22.875-7.05-6.05-4.7-10.125-11.15-12.225-19.35-1.2-4.4-1.8-9.05-1.8-13.95 0-5.8.55-10.7 1.65-14.7 2-7.4 6.025-13.35 12.075-17.85 6.05-4.5 13.225-6.75 21.525-6.75 9.8 0 17.575 2.9 23.325 8.7 5.75 5.8 9.475 13.95 11.175 24.45.4 3.3.7 6.95.9 10.95 0 1.7-.85 2.55-2.55 2.55H911.7c-.6 0-.9.3-.9.9.3 2.1.65 3.65 1.05 4.65 1 3.1 2.975 5.475 5.925 7.125 2.95 1.65 6.525 2.475 10.725 2.475 6.6-.3 11.65-2.6 15.15-6.9zm-27.075-34.275c-2.15 1.55-3.625 3.725-4.425 6.525-.5 1.9-.8 3.15-.9 3.75-.1.6.15.9.75.9h25.5c.5 0 .75-.2.75-.6 0-1.1-.2-2.25-.6-3.45-.9-2.9-2.45-5.2-4.65-6.9-2.2-1.7-5-2.55-8.4-2.55-3.2 0-5.875.775-8.025 2.325z" fill="#181818" fill-rule="evenodd" opacity=".05"/>
</svg>
