<svg xmlns="http://www.w3.org/2000/svg" width="513" height="844" viewBox="0 0 513 844">
  <g fill="#FFF" fill-rule="evenodd" opacity=".15">
    <g>
      <circle cx="1.5" cy="1.5" r="1.5"/>
      <circle cx="31.5" cy="1.5" r="1.5"/>
      <circle cx="61.5" cy="1.5" r="1.5"/>
      <circle cx="91.5" cy="1.5" r="1.5"/>
      <circle cx="121.5" cy="1.5" r="1.5"/>
      <circle cx="151.5" cy="1.5" r="1.5"/>
      <circle cx="181.5" cy="1.5" r="1.5"/>
      <circle cx="211.5" cy="1.5" r="1.5"/>
      <circle cx="241.5" cy="1.5" r="1.5"/>
      <circle cx="271.5" cy="1.5" r="1.5"/>
      <circle cx="301.5" cy="1.5" r="1.5"/>
      <circle cx="331.5" cy="1.5" r="1.5"/>
      <circle cx="361.5" cy="1.5" r="1.5"/>
      <circle cx="391.5" cy="1.5" r="1.5"/>
      <circle cx="421.5" cy="1.5" r="1.5"/>
      <circle cx="451.5" cy="1.5" r="1.5"/>
      <circle cx="481.5" cy="1.5" r="1.5"/>
      <circle cx="511.5" cy="1.5" r="1.5"/>
    </g>
    <g transform="translate(0 30)">
      <circle cx="1.5" cy="1.5" r="1.5"/>
      <circle cx="31.5" cy="1.5" r="1.5"/>
      <circle cx="61.5" cy="1.5" r="1.5"/>
      <circle cx="91.5" cy="1.5" r="1.5"/>
      <circle cx="121.5" cy="1.5" r="1.5"/>
      <circle cx="151.5" cy="1.5" r="1.5"/>
      <circle cx="181.5" cy="1.5" r="1.5"/>
      <circle cx="211.5" cy="1.5" r="1.5"/>
      <circle cx="241.5" cy="1.5" r="1.5"/>
      <circle cx="271.5" cy="1.5" r="1.5"/>
      <circle cx="301.5" cy="1.5" r="1.5"/>
      <circle cx="331.5" cy="1.5" r="1.5"/>
      <circle cx="361.5" cy="1.5" r="1.5"/>
      <circle cx="391.5" cy="1.5" r="1.5"/>
      <circle cx="421.5" cy="1.5" r="1.5"/>
      <circle cx="451.5" cy="1.5" r="1.5"/>
      <circle cx="481.5" cy="1.5" r="1.5"/>
      <circle cx="511.5" cy="1.5" r="1.5"/>
    </g>
    <g transform="translate(0 60)">
      <circle cx="1.5" cy="1.5" r="1.5"/>
      <circle cx="31.5" cy="1.5" r="1.5"/>
      <circle cx="61.5" cy="1.5" r="1.5"/>
      <circle cx="91.5" cy="1.5" r="1.5"/>
      <circle cx="121.5" cy="1.5" r="1.5"/>
      <circle cx="151.5" cy="1.5" r="1.5"/>
      <circle cx="181.5" cy="1.5" r="1.5"/>
      <circle cx="211.5" cy="1.5" r="1.5"/>
      <circle cx="241.5" cy="1.5" r="1.5"/>
      <circle cx="271.5" cy="1.5" r="1.5"/>
      <circle cx="301.5" cy="1.5" r="1.5"/>
      <circle cx="331.5" cy="1.5" r="1.5"/>
      <circle cx="361.5" cy="1.5" r="1.5"/>
      <circle cx="391.5" cy="1.5" r="1.5"/>
      <circle cx="421.5" cy="1.5" r="1.5"/>
      <circle cx="451.5" cy="1.5" r="1.5"/>
      <circle cx="481.5" cy="1.5" r="1.5"/>
      <circle cx="511.5" cy="1.5" r="1.5"/>
    </g>
    <g transform="translate(0 90)">
      <circle cx="1.5" cy="1.5" r="1.5"/>
      <circle cx="31.5" cy="1.5" r="1.5"/>
      <circle cx="61.5" cy="1.5" r="1.5"/>
      <circle cx="91.5" cy="1.5" r="1.5"/>
      <circle cx="121.5" cy="1.5" r="1.5"/>
      <circle cx="151.5" cy="1.5" r="1.5"/>
      <circle cx="181.5" cy="1.5" r="1.5"/>
      <circle cx="211.5" cy="1.5" r="1.5"/>
      <circle cx="241.5" cy="1.5" r="1.5"/>
      <circle cx="271.5" cy="1.5" r="1.5"/>
      <circle cx="301.5" cy="1.5" r="1.5"/>
      <circle cx="331.5" cy="1.5" r="1.5"/>
      <circle cx="361.5" cy="1.5" r="1.5"/>
      <circle cx="391.5" cy="1.5" r="1.5"/>
      <circle cx="421.5" cy="1.5" r="1.5"/>
      <circle cx="451.5" cy="1.5" r="1.5"/>
      <circle cx="481.5" cy="1.5" r="1.5"/>
      <circle cx="511.5" cy="1.5" r="1.5"/>
    </g>
    <g transform="translate(0 120)">
      <circle cx="1.5" cy="1.5" r="1.5"/>
      <circle cx="31.5" cy="1.5" r="1.5"/>
      <circle cx="61.5" cy="1.5" r="1.5"/>
      <circle cx="91.5" cy="1.5" r="1.5"/>
      <circle cx="121.5" cy="1.5" r="1.5"/>
      <circle cx="151.5" cy="1.5" r="1.5"/>
      <circle cx="181.5" cy="1.5" r="1.5"/>
      <circle cx="211.5" cy="1.5" r="1.5"/>
      <circle cx="241.5" cy="1.5" r="1.5"/>
      <circle cx="271.5" cy="1.5" r="1.5"/>
      <circle cx="301.5" cy="1.5" r="1.5"/>
      <circle cx="331.5" cy="1.5" r="1.5"/>
      <circle cx="361.5" cy="1.5" r="1.5"/>
      <circle cx="391.5" cy="1.5" r="1.5"/>
      <circle cx="421.5" cy="1.5" r="1.5"/>
      <circle cx="451.5" cy="1.5" r="1.5"/>
      <circle cx="481.5" cy="1.5" r="1.5"/>
      <circle cx="511.5" cy="1.5" r="1.5"/>
    </g>
    <g transform="translate(0 150)">
      <circle cx="1.5" cy="1.5" r="1.5"/>
      <circle cx="31.5" cy="1.5" r="1.5"/>
      <circle cx="61.5" cy="1.5" r="1.5"/>
      <circle cx="91.5" cy="1.5" r="1.5"/>
      <circle cx="121.5" cy="1.5" r="1.5"/>
      <circle cx="151.5" cy="1.5" r="1.5"/>
      <circle cx="181.5" cy="1.5" r="1.5"/>
      <circle cx="211.5" cy="1.5" r="1.5"/>
      <circle cx="241.5" cy="1.5" r="1.5"/>
      <circle cx="271.5" cy="1.5" r="1.5"/>
      <circle cx="301.5" cy="1.5" r="1.5"/>
      <circle cx="331.5" cy="1.5" r="1.5"/>
      <circle cx="361.5" cy="1.5" r="1.5"/>
      <circle cx="391.5" cy="1.5" r="1.5"/>
      <circle cx="421.5" cy="1.5" r="1.5"/>
      <circle cx="451.5" cy="1.5" r="1.5"/>
      <circle cx="481.5" cy="1.5" r="1.5"/>
      <circle cx="511.5" cy="1.5" r="1.5"/>
    </g>
    <g transform="translate(0 180)">
      <circle cx="1.5" cy="1.5" r="1.5"/>
      <circle cx="31.5" cy="1.5" r="1.5"/>
      <circle cx="61.5" cy="1.5" r="1.5"/>
      <circle cx="91.5" cy="1.5" r="1.5"/>
      <circle cx="121.5" cy="1.5" r="1.5"/>
      <circle cx="151.5" cy="1.5" r="1.5"/>
      <circle cx="181.5" cy="1.5" r="1.5"/>
      <circle cx="211.5" cy="1.5" r="1.5"/>
      <circle cx="241.5" cy="1.5" r="1.5"/>
      <circle cx="271.5" cy="1.5" r="1.5"/>
      <circle cx="301.5" cy="1.5" r="1.5"/>
      <circle cx="331.5" cy="1.5" r="1.5"/>
      <circle cx="361.5" cy="1.5" r="1.5"/>
      <circle cx="391.5" cy="1.5" r="1.5"/>
      <circle cx="421.5" cy="1.5" r="1.5"/>
      <circle cx="451.5" cy="1.5" r="1.5"/>
      <circle cx="481.5" cy="1.5" r="1.5"/>
      <circle cx="511.5" cy="1.5" r="1.5"/>
    </g>
    <g transform="translate(0 210)">
      <circle cx="1.5" cy="1.5" r="1.5"/>
      <circle cx="31.5" cy="1.5" r="1.5"/>
      <circle cx="61.5" cy="1.5" r="1.5"/>
      <circle cx="91.5" cy="1.5" r="1.5"/>
      <circle cx="121.5" cy="1.5" r="1.5"/>
      <circle cx="151.5" cy="1.5" r="1.5"/>
      <circle cx="181.5" cy="1.5" r="1.5"/>
      <circle cx="211.5" cy="1.5" r="1.5"/>
      <circle cx="241.5" cy="1.5" r="1.5"/>
      <circle cx="271.5" cy="1.5" r="1.5"/>
      <circle cx="301.5" cy="1.5" r="1.5"/>
      <circle cx="331.5" cy="1.5" r="1.5"/>
      <circle cx="361.5" cy="1.5" r="1.5"/>
      <circle cx="391.5" cy="1.5" r="1.5"/>
      <circle cx="421.5" cy="1.5" r="1.5"/>
      <circle cx="451.5" cy="1.5" r="1.5"/>
      <circle cx="481.5" cy="1.5" r="1.5"/>
      <circle cx="511.5" cy="1.5" r="1.5"/>
    </g>
    <g transform="translate(0 240)">
      <circle cx="1.5" cy="1.5" r="1.5"/>
      <circle cx="31.5" cy="1.5" r="1.5"/>
      <circle cx="61.5" cy="1.5" r="1.5"/>
      <circle cx="91.5" cy="1.5" r="1.5"/>
      <circle cx="121.5" cy="1.5" r="1.5"/>
      <circle cx="151.5" cy="1.5" r="1.5"/>
      <circle cx="181.5" cy="1.5" r="1.5"/>
      <circle cx="211.5" cy="1.5" r="1.5"/>
      <circle cx="241.5" cy="1.5" r="1.5"/>
      <circle cx="271.5" cy="1.5" r="1.5"/>
      <circle cx="301.5" cy="1.5" r="1.5"/>
      <circle cx="331.5" cy="1.5" r="1.5"/>
      <circle cx="361.5" cy="1.5" r="1.5"/>
      <circle cx="391.5" cy="1.5" r="1.5"/>
      <circle cx="421.5" cy="1.5" r="1.5"/>
      <circle cx="451.5" cy="1.5" r="1.5"/>
      <circle cx="481.5" cy="1.5" r="1.5"/>
      <circle cx="511.5" cy="1.5" r="1.5"/>
    </g>
    <g transform="translate(0 270)">
      <circle cx="1.5" cy="1.5" r="1.5"/>
      <circle cx="31.5" cy="1.5" r="1.5"/>
      <circle cx="61.5" cy="1.5" r="1.5"/>
      <circle cx="91.5" cy="1.5" r="1.5"/>
      <circle cx="121.5" cy="1.5" r="1.5"/>
      <circle cx="151.5" cy="1.5" r="1.5"/>
      <circle cx="181.5" cy="1.5" r="1.5"/>
      <circle cx="211.5" cy="1.5" r="1.5"/>
      <circle cx="241.5" cy="1.5" r="1.5"/>
      <circle cx="271.5" cy="1.5" r="1.5"/>
      <circle cx="301.5" cy="1.5" r="1.5"/>
      <circle cx="331.5" cy="1.5" r="1.5"/>
      <circle cx="361.5" cy="1.5" r="1.5"/>
      <circle cx="391.5" cy="1.5" r="1.5"/>
      <circle cx="421.5" cy="1.5" r="1.5"/>
      <circle cx="451.5" cy="1.5" r="1.5"/>
      <circle cx="481.5" cy="1.5" r="1.5"/>
      <circle cx="511.5" cy="1.5" r="1.5"/>
    </g>
    <g transform="translate(0 300)">
      <circle cx="1.5" cy="1.5" r="1.5"/>
      <circle cx="31.5" cy="1.5" r="1.5"/>
      <circle cx="61.5" cy="1.5" r="1.5"/>
      <circle cx="91.5" cy="1.5" r="1.5"/>
      <circle cx="121.5" cy="1.5" r="1.5"/>
      <circle cx="151.5" cy="1.5" r="1.5"/>
      <circle cx="181.5" cy="1.5" r="1.5"/>
      <circle cx="211.5" cy="1.5" r="1.5"/>
      <circle cx="241.5" cy="1.5" r="1.5"/>
      <circle cx="271.5" cy="1.5" r="1.5"/>
      <circle cx="301.5" cy="1.5" r="1.5"/>
      <circle cx="331.5" cy="1.5" r="1.5"/>
      <circle cx="361.5" cy="1.5" r="1.5"/>
      <circle cx="391.5" cy="1.5" r="1.5"/>
      <circle cx="421.5" cy="1.5" r="1.5"/>
      <circle cx="451.5" cy="1.5" r="1.5"/>
      <circle cx="481.5" cy="1.5" r="1.5"/>
      <circle cx="511.5" cy="1.5" r="1.5"/>
    </g>
    <g transform="translate(0 330)">
      <circle cx="1.5" cy="1.5" r="1.5"/>
      <circle cx="31.5" cy="1.5" r="1.5"/>
      <circle cx="61.5" cy="1.5" r="1.5"/>
      <circle cx="91.5" cy="1.5" r="1.5"/>
      <circle cx="121.5" cy="1.5" r="1.5"/>
      <circle cx="151.5" cy="1.5" r="1.5"/>
      <circle cx="181.5" cy="1.5" r="1.5"/>
      <circle cx="211.5" cy="1.5" r="1.5"/>
      <circle cx="241.5" cy="1.5" r="1.5"/>
      <circle cx="271.5" cy="1.5" r="1.5"/>
      <circle cx="301.5" cy="1.5" r="1.5"/>
      <circle cx="331.5" cy="1.5" r="1.5"/>
      <circle cx="361.5" cy="1.5" r="1.5"/>
      <circle cx="391.5" cy="1.5" r="1.5"/>
      <circle cx="421.5" cy="1.5" r="1.5"/>
      <circle cx="451.5" cy="1.5" r="1.5"/>
      <circle cx="481.5" cy="1.5" r="1.5"/>
      <circle cx="511.5" cy="1.5" r="1.5"/>
    </g>
    <g transform="translate(0 360)">
      <circle cx="1.5" cy="1.5" r="1.5"/>
      <circle cx="31.5" cy="1.5" r="1.5"/>
      <circle cx="61.5" cy="1.5" r="1.5"/>
      <circle cx="91.5" cy="1.5" r="1.5"/>
      <circle cx="121.5" cy="1.5" r="1.5"/>
      <circle cx="151.5" cy="1.5" r="1.5"/>
      <circle cx="181.5" cy="1.5" r="1.5"/>
      <circle cx="211.5" cy="1.5" r="1.5"/>
      <circle cx="241.5" cy="1.5" r="1.5"/>
      <circle cx="271.5" cy="1.5" r="1.5"/>
      <circle cx="301.5" cy="1.5" r="1.5"/>
      <circle cx="331.5" cy="1.5" r="1.5"/>
      <circle cx="361.5" cy="1.5" r="1.5"/>
      <circle cx="391.5" cy="1.5" r="1.5"/>
      <circle cx="421.5" cy="1.5" r="1.5"/>
      <circle cx="451.5" cy="1.5" r="1.5"/>
      <circle cx="481.5" cy="1.5" r="1.5"/>
      <circle cx="511.5" cy="1.5" r="1.5"/>
    </g>
    <g transform="translate(0 390)">
      <circle cx="1.5" cy="1.5" r="1.5"/>
      <circle cx="31.5" cy="1.5" r="1.5"/>
      <circle cx="61.5" cy="1.5" r="1.5"/>
      <circle cx="91.5" cy="1.5" r="1.5"/>
      <circle cx="121.5" cy="1.5" r="1.5"/>
      <circle cx="151.5" cy="1.5" r="1.5"/>
      <circle cx="181.5" cy="1.5" r="1.5"/>
      <circle cx="211.5" cy="1.5" r="1.5"/>
      <circle cx="241.5" cy="1.5" r="1.5"/>
      <circle cx="271.5" cy="1.5" r="1.5"/>
      <circle cx="301.5" cy="1.5" r="1.5"/>
      <circle cx="331.5" cy="1.5" r="1.5"/>
      <circle cx="361.5" cy="1.5" r="1.5"/>
      <circle cx="391.5" cy="1.5" r="1.5"/>
      <circle cx="421.5" cy="1.5" r="1.5"/>
      <circle cx="451.5" cy="1.5" r="1.5"/>
      <circle cx="481.5" cy="1.5" r="1.5"/>
      <circle cx="511.5" cy="1.5" r="1.5"/>
    </g>
    <g transform="translate(0 420)">
      <circle cx="1.5" cy="1.5" r="1.5"/>
      <circle cx="31.5" cy="1.5" r="1.5"/>
      <circle cx="61.5" cy="1.5" r="1.5"/>
      <circle cx="91.5" cy="1.5" r="1.5"/>
      <circle cx="121.5" cy="1.5" r="1.5"/>
      <circle cx="151.5" cy="1.5" r="1.5"/>
      <circle cx="181.5" cy="1.5" r="1.5"/>
      <circle cx="211.5" cy="1.5" r="1.5"/>
      <circle cx="241.5" cy="1.5" r="1.5"/>
      <circle cx="271.5" cy="1.5" r="1.5"/>
      <circle cx="301.5" cy="1.5" r="1.5"/>
      <circle cx="331.5" cy="1.5" r="1.5"/>
      <circle cx="361.5" cy="1.5" r="1.5"/>
      <circle cx="391.5" cy="1.5" r="1.5"/>
      <circle cx="421.5" cy="1.5" r="1.5"/>
      <circle cx="451.5" cy="1.5" r="1.5"/>
      <circle cx="481.5" cy="1.5" r="1.5"/>
      <circle cx="511.5" cy="1.5" r="1.5"/>
    </g>
    <g transform="translate(0 450)">
      <circle cx="1.5" cy="1.5" r="1.5"/>
      <circle cx="31.5" cy="1.5" r="1.5"/>
      <circle cx="61.5" cy="1.5" r="1.5"/>
      <circle cx="91.5" cy="1.5" r="1.5"/>
      <circle cx="121.5" cy="1.5" r="1.5"/>
      <circle cx="151.5" cy="1.5" r="1.5"/>
      <circle cx="181.5" cy="1.5" r="1.5"/>
      <circle cx="211.5" cy="1.5" r="1.5"/>
      <circle cx="241.5" cy="1.5" r="1.5"/>
      <circle cx="271.5" cy="1.5" r="1.5"/>
      <circle cx="301.5" cy="1.5" r="1.5"/>
      <circle cx="331.5" cy="1.5" r="1.5"/>
      <circle cx="361.5" cy="1.5" r="1.5"/>
      <circle cx="391.5" cy="1.5" r="1.5"/>
      <circle cx="421.5" cy="1.5" r="1.5"/>
      <circle cx="451.5" cy="1.5" r="1.5"/>
      <circle cx="481.5" cy="1.5" r="1.5"/>
      <circle cx="511.5" cy="1.5" r="1.5"/>
    </g>
    <g transform="translate(0 480)">
      <circle cx="1.5" cy="1.5" r="1.5"/>
      <circle cx="31.5" cy="1.5" r="1.5"/>
      <circle cx="61.5" cy="1.5" r="1.5"/>
      <circle cx="91.5" cy="1.5" r="1.5"/>
      <circle cx="121.5" cy="1.5" r="1.5"/>
      <circle cx="151.5" cy="1.5" r="1.5"/>
      <circle cx="181.5" cy="1.5" r="1.5"/>
      <circle cx="211.5" cy="1.5" r="1.5"/>
      <circle cx="241.5" cy="1.5" r="1.5"/>
      <circle cx="271.5" cy="1.5" r="1.5"/>
      <circle cx="301.5" cy="1.5" r="1.5"/>
      <circle cx="331.5" cy="1.5" r="1.5"/>
      <circle cx="361.5" cy="1.5" r="1.5"/>
      <circle cx="391.5" cy="1.5" r="1.5"/>
      <circle cx="421.5" cy="1.5" r="1.5"/>
      <circle cx="451.5" cy="1.5" r="1.5"/>
      <circle cx="481.5" cy="1.5" r="1.5"/>
      <circle cx="511.5" cy="1.5" r="1.5"/>
    </g>
    <g transform="translate(0 510)">
      <circle cx="1.5" cy="1.5" r="1.5"/>
      <circle cx="31.5" cy="1.5" r="1.5"/>
      <circle cx="61.5" cy="1.5" r="1.5"/>
      <circle cx="91.5" cy="1.5" r="1.5"/>
      <circle cx="121.5" cy="1.5" r="1.5"/>
      <circle cx="151.5" cy="1.5" r="1.5"/>
      <circle cx="181.5" cy="1.5" r="1.5"/>
      <circle cx="211.5" cy="1.5" r="1.5"/>
      <circle cx="241.5" cy="1.5" r="1.5"/>
      <circle cx="271.5" cy="1.5" r="1.5"/>
      <circle cx="301.5" cy="1.5" r="1.5"/>
      <circle cx="331.5" cy="1.5" r="1.5"/>
      <circle cx="361.5" cy="1.5" r="1.5"/>
      <circle cx="391.5" cy="1.5" r="1.5"/>
      <circle cx="421.5" cy="1.5" r="1.5"/>
      <circle cx="451.5" cy="1.5" r="1.5"/>
      <circle cx="481.5" cy="1.5" r="1.5"/>
      <circle cx="511.5" cy="1.5" r="1.5"/>
    </g>
    <g transform="translate(0 540)">
      <circle cx="1.5" cy="1.5" r="1.5"/>
      <circle cx="31.5" cy="1.5" r="1.5"/>
      <circle cx="61.5" cy="1.5" r="1.5"/>
      <circle cx="91.5" cy="1.5" r="1.5"/>
      <circle cx="121.5" cy="1.5" r="1.5"/>
      <circle cx="151.5" cy="1.5" r="1.5"/>
      <circle cx="181.5" cy="1.5" r="1.5"/>
      <circle cx="211.5" cy="1.5" r="1.5"/>
      <circle cx="241.5" cy="1.5" r="1.5"/>
      <circle cx="271.5" cy="1.5" r="1.5"/>
      <circle cx="301.5" cy="1.5" r="1.5"/>
      <circle cx="331.5" cy="1.5" r="1.5"/>
      <circle cx="361.5" cy="1.5" r="1.5"/>
      <circle cx="391.5" cy="1.5" r="1.5"/>
      <circle cx="421.5" cy="1.5" r="1.5"/>
      <circle cx="451.5" cy="1.5" r="1.5"/>
      <circle cx="481.5" cy="1.5" r="1.5"/>
      <circle cx="511.5" cy="1.5" r="1.5"/>
    </g>
    <g transform="translate(0 570)">
      <circle cx="1.5" cy="1.5" r="1.5"/>
      <circle cx="31.5" cy="1.5" r="1.5"/>
      <circle cx="61.5" cy="1.5" r="1.5"/>
      <circle cx="91.5" cy="1.5" r="1.5"/>
      <circle cx="121.5" cy="1.5" r="1.5"/>
      <circle cx="151.5" cy="1.5" r="1.5"/>
      <circle cx="181.5" cy="1.5" r="1.5"/>
      <circle cx="211.5" cy="1.5" r="1.5"/>
      <circle cx="241.5" cy="1.5" r="1.5"/>
      <circle cx="271.5" cy="1.5" r="1.5"/>
      <circle cx="301.5" cy="1.5" r="1.5"/>
      <circle cx="331.5" cy="1.5" r="1.5"/>
      <circle cx="361.5" cy="1.5" r="1.5"/>
      <circle cx="391.5" cy="1.5" r="1.5"/>
      <circle cx="421.5" cy="1.5" r="1.5"/>
      <circle cx="451.5" cy="1.5" r="1.5"/>
      <circle cx="481.5" cy="1.5" r="1.5"/>
      <circle cx="511.5" cy="1.5" r="1.5"/>
    </g>
    <g transform="translate(0 600)">
      <circle cx="1.5" cy="1.5" r="1.5"/>
      <circle cx="31.5" cy="1.5" r="1.5"/>
      <circle cx="61.5" cy="1.5" r="1.5"/>
      <circle cx="91.5" cy="1.5" r="1.5"/>
      <circle cx="121.5" cy="1.5" r="1.5"/>
      <circle cx="151.5" cy="1.5" r="1.5"/>
      <circle cx="181.5" cy="1.5" r="1.5"/>
      <circle cx="211.5" cy="1.5" r="1.5"/>
      <circle cx="241.5" cy="1.5" r="1.5"/>
      <circle cx="271.5" cy="1.5" r="1.5"/>
      <circle cx="301.5" cy="1.5" r="1.5"/>
      <circle cx="331.5" cy="1.5" r="1.5"/>
      <circle cx="361.5" cy="1.5" r="1.5"/>
      <circle cx="391.5" cy="1.5" r="1.5"/>
      <circle cx="421.5" cy="1.5" r="1.5"/>
      <circle cx="451.5" cy="1.5" r="1.5"/>
      <circle cx="481.5" cy="1.5" r="1.5"/>
      <circle cx="511.5" cy="1.5" r="1.5"/>
    </g>
    <g transform="translate(0 630)">
      <circle cx="1.5" cy="1.5" r="1.5"/>
      <circle cx="31.5" cy="1.5" r="1.5"/>
      <circle cx="61.5" cy="1.5" r="1.5"/>
      <circle cx="91.5" cy="1.5" r="1.5"/>
      <circle cx="121.5" cy="1.5" r="1.5"/>
      <circle cx="151.5" cy="1.5" r="1.5"/>
      <circle cx="181.5" cy="1.5" r="1.5"/>
      <circle cx="211.5" cy="1.5" r="1.5"/>
      <circle cx="241.5" cy="1.5" r="1.5"/>
      <circle cx="271.5" cy="1.5" r="1.5"/>
      <circle cx="301.5" cy="1.5" r="1.5"/>
      <circle cx="331.5" cy="1.5" r="1.5"/>
      <circle cx="361.5" cy="1.5" r="1.5"/>
      <circle cx="391.5" cy="1.5" r="1.5"/>
      <circle cx="421.5" cy="1.5" r="1.5"/>
      <circle cx="451.5" cy="1.5" r="1.5"/>
      <circle cx="481.5" cy="1.5" r="1.5"/>
      <circle cx="511.5" cy="1.5" r="1.5"/>
    </g>
    <g transform="translate(0 660)">
      <circle cx="1.5" cy="1.5" r="1.5"/>
      <circle cx="31.5" cy="1.5" r="1.5"/>
      <circle cx="61.5" cy="1.5" r="1.5"/>
      <circle cx="91.5" cy="1.5" r="1.5"/>
      <circle cx="121.5" cy="1.5" r="1.5"/>
      <circle cx="151.5" cy="1.5" r="1.5"/>
      <circle cx="181.5" cy="1.5" r="1.5"/>
      <circle cx="211.5" cy="1.5" r="1.5"/>
      <circle cx="241.5" cy="1.5" r="1.5"/>
      <circle cx="271.5" cy="1.5" r="1.5"/>
      <circle cx="301.5" cy="1.5" r="1.5"/>
      <circle cx="331.5" cy="1.5" r="1.5"/>
      <circle cx="361.5" cy="1.5" r="1.5"/>
      <circle cx="391.5" cy="1.5" r="1.5"/>
      <circle cx="421.5" cy="1.5" r="1.5"/>
      <circle cx="451.5" cy="1.5" r="1.5"/>
      <circle cx="481.5" cy="1.5" r="1.5"/>
      <circle cx="511.5" cy="1.5" r="1.5"/>
    </g>
    <g transform="translate(0 690)">
      <circle cx="1.5" cy="1.5" r="1.5"/>
      <circle cx="31.5" cy="1.5" r="1.5"/>
      <circle cx="61.5" cy="1.5" r="1.5"/>
      <circle cx="91.5" cy="1.5" r="1.5"/>
      <circle cx="121.5" cy="1.5" r="1.5"/>
      <circle cx="151.5" cy="1.5" r="1.5"/>
      <circle cx="181.5" cy="1.5" r="1.5"/>
      <circle cx="211.5" cy="1.5" r="1.5"/>
      <circle cx="241.5" cy="1.5" r="1.5"/>
      <circle cx="271.5" cy="1.5" r="1.5"/>
      <circle cx="301.5" cy="1.5" r="1.5"/>
      <circle cx="331.5" cy="1.5" r="1.5"/>
      <circle cx="361.5" cy="1.5" r="1.5"/>
      <circle cx="391.5" cy="1.5" r="1.5"/>
      <circle cx="421.5" cy="1.5" r="1.5"/>
      <circle cx="451.5" cy="1.5" r="1.5"/>
      <circle cx="481.5" cy="1.5" r="1.5"/>
      <circle cx="511.5" cy="1.5" r="1.5"/>
    </g>
    <g transform="translate(0 720)">
      <circle cx="1.5" cy="1.5" r="1.5"/>
      <circle cx="31.5" cy="1.5" r="1.5"/>
      <circle cx="61.5" cy="1.5" r="1.5"/>
      <circle cx="91.5" cy="1.5" r="1.5"/>
      <circle cx="121.5" cy="1.5" r="1.5"/>
      <circle cx="151.5" cy="1.5" r="1.5"/>
      <circle cx="181.5" cy="1.5" r="1.5"/>
      <circle cx="211.5" cy="1.5" r="1.5"/>
      <circle cx="241.5" cy="1.5" r="1.5"/>
      <circle cx="271.5" cy="1.5" r="1.5"/>
      <circle cx="301.5" cy="1.5" r="1.5"/>
      <circle cx="331.5" cy="1.5" r="1.5"/>
      <circle cx="361.5" cy="1.5" r="1.5"/>
      <circle cx="391.5" cy="1.5" r="1.5"/>
      <circle cx="421.5" cy="1.5" r="1.5"/>
      <circle cx="451.5" cy="1.5" r="1.5"/>
      <circle cx="481.5" cy="1.5" r="1.5"/>
      <circle cx="511.5" cy="1.5" r="1.5"/>
    </g>
    <g transform="translate(0 751)">
      <circle cx="1.5" cy="1.5" r="1.5"/>
      <circle cx="31.5" cy="1.5" r="1.5"/>
      <circle cx="61.5" cy="1.5" r="1.5"/>
      <circle cx="91.5" cy="1.5" r="1.5"/>
      <circle cx="121.5" cy="1.5" r="1.5"/>
      <circle cx="151.5" cy="1.5" r="1.5"/>
      <circle cx="181.5" cy="1.5" r="1.5"/>
      <circle cx="211.5" cy="1.5" r="1.5"/>
      <circle cx="241.5" cy="1.5" r="1.5"/>
      <circle cx="271.5" cy="1.5" r="1.5"/>
      <circle cx="301.5" cy="1.5" r="1.5"/>
      <circle cx="331.5" cy="1.5" r="1.5"/>
      <circle cx="361.5" cy="1.5" r="1.5"/>
      <circle cx="391.5" cy="1.5" r="1.5"/>
      <circle cx="421.5" cy="1.5" r="1.5"/>
      <circle cx="451.5" cy="1.5" r="1.5"/>
      <circle cx="481.5" cy="1.5" r="1.5"/>
      <circle cx="511.5" cy="1.5" r="1.5"/>
    </g>
    <g transform="translate(0 781)">
      <circle cx="1.5" cy="1.5" r="1.5"/>
      <circle cx="31.5" cy="1.5" r="1.5"/>
      <circle cx="61.5" cy="1.5" r="1.5"/>
      <circle cx="91.5" cy="1.5" r="1.5"/>
      <circle cx="121.5" cy="1.5" r="1.5"/>
      <circle cx="151.5" cy="1.5" r="1.5"/>
      <circle cx="181.5" cy="1.5" r="1.5"/>
      <circle cx="211.5" cy="1.5" r="1.5"/>
      <circle cx="241.5" cy="1.5" r="1.5"/>
      <circle cx="271.5" cy="1.5" r="1.5"/>
      <circle cx="301.5" cy="1.5" r="1.5"/>
      <circle cx="331.5" cy="1.5" r="1.5"/>
      <circle cx="361.5" cy="1.5" r="1.5"/>
      <circle cx="391.5" cy="1.5" r="1.5"/>
      <circle cx="421.5" cy="1.5" r="1.5"/>
      <circle cx="451.5" cy="1.5" r="1.5"/>
      <circle cx="481.5" cy="1.5" r="1.5"/>
      <circle cx="511.5" cy="1.5" r="1.5"/>
    </g>
    <g transform="translate(0 811)">
      <circle cx="1.5" cy="1.5" r="1.5"/>
      <circle cx="31.5" cy="1.5" r="1.5"/>
      <circle cx="61.5" cy="1.5" r="1.5"/>
      <circle cx="91.5" cy="1.5" r="1.5"/>
      <circle cx="121.5" cy="1.5" r="1.5"/>
      <circle cx="151.5" cy="1.5" r="1.5"/>
      <circle cx="181.5" cy="1.5" r="1.5"/>
      <circle cx="211.5" cy="1.5" r="1.5"/>
      <circle cx="241.5" cy="1.5" r="1.5"/>
      <circle cx="271.5" cy="1.5" r="1.5"/>
      <circle cx="301.5" cy="1.5" r="1.5"/>
      <circle cx="331.5" cy="1.5" r="1.5"/>
      <circle cx="361.5" cy="1.5" r="1.5"/>
      <circle cx="391.5" cy="1.5" r="1.5"/>
      <circle cx="421.5" cy="1.5" r="1.5"/>
      <circle cx="451.5" cy="1.5" r="1.5"/>
      <circle cx="481.5" cy="1.5" r="1.5"/>
      <circle cx="511.5" cy="1.5" r="1.5"/>
    </g>
    <g transform="translate(0 841)">
      <circle cx="1.5" cy="1.5" r="1.5"/>
      <circle cx="31.5" cy="1.5" r="1.5"/>
      <circle cx="61.5" cy="1.5" r="1.5"/>
      <circle cx="91.5" cy="1.5" r="1.5"/>
      <circle cx="121.5" cy="1.5" r="1.5"/>
      <circle cx="151.5" cy="1.5" r="1.5"/>
      <circle cx="181.5" cy="1.5" r="1.5"/>
      <circle cx="211.5" cy="1.5" r="1.5"/>
      <circle cx="241.5" cy="1.5" r="1.5"/>
      <circle cx="271.5" cy="1.5" r="1.5"/>
      <circle cx="301.5" cy="1.5" r="1.5"/>
      <circle cx="331.5" cy="1.5" r="1.5"/>
      <circle cx="361.5" cy="1.5" r="1.5"/>
      <circle cx="391.5" cy="1.5" r="1.5"/>
      <circle cx="421.5" cy="1.5" r="1.5"/>
      <circle cx="451.5" cy="1.5" r="1.5"/>
      <circle cx="481.5" cy="1.5" r="1.5"/>
      <circle cx="511.5" cy="1.5" r="1.5"/>
    </g>
  </g>
</svg>
